{
	"asset":{
		"generator":"Khronos glTF Blender I/O v4.3.47",
		"version":"2.0"
	},
	"scene":0,
	"scenes":[
		{
			"name":"Scene",
			"nodes":[
				16
			]
		}
	],
	"nodes":[
		{
			"name":"hand_r",
			"rotation":[
				7.105427357601002e-14,
				5.293955920339377e-23,
				4.629624875295593e-20,
				1
			],
			"translation":[
				0,
				31.02246856689453,
				-7.275957614183426e-12
			]
		},
		{
			"children":[
				0
			],
			"name":"arm_rl",
			"rotation":[
				1.3695944290070294e-22,
				2.842170943040401e-14,
				-5.1355782980167485e-21,
				1
			],
			"translation":[
				0,
				45.004661560058594,
				0
			]
		},
		{
			"children":[
				1
			],
			"name":"arm_ru",
			"rotation":[
				-2.4752489480306394e-07,
				2.2732864124463958e-07,
				0.7071067690849304,
				0.7071067690849304
			],
			"translation":[
				0,
				59.21989440917969,
				0
			]
		},
		{
			"name":"hand_l",
			"rotation":[
				-2.7119013415108362e-14,
				-1.8215058977745675e-14,
				2.3120096755737925e-15,
				1
			],
			"translation":[
				-1.52587890625e-05,
				32.04920959472656,
				5.4569682106375694e-12
			]
		},
		{
			"children":[
				3
			],
			"name":"arm_ll",
			"rotation":[
				8.408123372896648e-15,
				-4.663677010221558e-14,
				2.3119914643654265e-15,
				1
			],
			"translation":[
				-1.52587890625e-05,
				44.3336181640625,
				6.821210263296962e-12
			]
		},
		{
			"children":[
				4
			],
			"name":"arm_lu",
			"rotation":[
				-2.2732864124463958e-07,
				-2.4752489480306394e-07,
				-0.7071067690849304,
				0.7071067690849304
			],
			"scale":[
				0.9999999403953552,
				0.9999999403953552,
				1
			],
			"translation":[
				0,
				59.21989440917969,
				0
			]
		},
		{
			"name":"head",
			"translation":[
				0,
				59.21989440917969,
				0
			]
		},
		{
			"children":[
				2,
				5,
				6
			],
			"name":"spine",
			"translation":[
				0,
				97.60479736328125,
				0
			]
		},
		{
			"name":"foot_l",
			"rotation":[
				0.7071067690849304,
				-3.0013879381840525e-07,
				-1.63477224646158e-07,
				0.7071067690849304
			],
			"translation":[
				-1.6245174947471241e-06,
				45.67842102050781,
				-1.0132387686040759e-13
			]
		},
		{
			"children":[
				8
			],
			"name":"leg_ll",
			"rotation":[
				2.6686294063438254e-08,
				1.6919054601771677e-08,
				-0.16584254801273346,
				0.9861522316932678
			],
			"scale":[
				0.9999999403953552,
				1,
				1
			],
			"translation":[
				-9.536742595628311e-07,
				44.90632629394531,
				-7.105427357601002e-13
			]
		},
		{
			"children":[
				9
			],
			"name":"leg_lu",
			"rotation":[
				8.496631664911547e-08,
				9.55211199027417e-09,
				-0.9861522912979126,
				0.16584236919879913
			],
			"scale":[
				0.9999983906745911,
				1,
				1
			],
			"translation":[
				0,
				97.60479736328125,
				0
			]
		},
		{
			"name":"foot_r",
			"rotation":[
				0.7071067690849304,
				-3.5300817557981645e-07,
				-2.370444320831666e-07,
				0.7071067690849304
			],
			"scale":[
				1,
				0.9999999403953552,
				0.9999998807907104
			],
			"translation":[
				5.552291213462013e-07,
				44.81275939941406,
				-8.007239619620132e-14
			]
		},
		{
			"children":[
				11
			],
			"name":"leg_rl",
			"rotation":[
				-3.317772723221424e-09,
				1.5401884922994213e-07,
				0.14864355325698853,
				0.9888908267021179
			],
			"translation":[
				1.907349087559851e-06,
				45.486846923828125,
				3.410605131648481e-13
			]
		},
		{
			"children":[
				12
			],
			"name":"leg_ru",
			"rotation":[
				5.185060913959205e-08,
				-1.20394298974702e-08,
				0.9888907670974731,
				0.1486438810825348
			],
			"scale":[
				1.0000042915344238,
				1.0000001192092896,
				1
			],
			"translation":[
				0,
				97.60479736328125,
				0
			]
		},
		{
			"children":[
				7,
				10,
				13
			],
			"name":"root",
			"rotation":[
				0,
				0.7071068286895752,
				0,
				0.7071067094802856
			],
			"scale":[
				1,
				0.9999999403953552,
				1
			]
		},
		{
			"mesh":0,
			"name":"Plane",
			"skin":0
		},
		{
			"children":[
				15,
				14
			],
			"name":"Armature"
		}
	],
	"animations":[
		{
			"channels":[
				{
					"sampler":0,
					"target":{
						"node":14,
						"path":"translation"
					}
				},
				{
					"sampler":1,
					"target":{
						"node":14,
						"path":"rotation"
					}
				},
				{
					"sampler":2,
					"target":{
						"node":14,
						"path":"scale"
					}
				},
				{
					"sampler":3,
					"target":{
						"node":7,
						"path":"translation"
					}
				},
				{
					"sampler":4,
					"target":{
						"node":7,
						"path":"rotation"
					}
				},
				{
					"sampler":5,
					"target":{
						"node":7,
						"path":"scale"
					}
				},
				{
					"sampler":6,
					"target":{
						"node":2,
						"path":"translation"
					}
				},
				{
					"sampler":7,
					"target":{
						"node":2,
						"path":"rotation"
					}
				},
				{
					"sampler":8,
					"target":{
						"node":2,
						"path":"scale"
					}
				},
				{
					"sampler":9,
					"target":{
						"node":1,
						"path":"translation"
					}
				},
				{
					"sampler":10,
					"target":{
						"node":1,
						"path":"rotation"
					}
				},
				{
					"sampler":11,
					"target":{
						"node":1,
						"path":"scale"
					}
				},
				{
					"sampler":12,
					"target":{
						"node":0,
						"path":"translation"
					}
				},
				{
					"sampler":13,
					"target":{
						"node":0,
						"path":"rotation"
					}
				},
				{
					"sampler":14,
					"target":{
						"node":0,
						"path":"scale"
					}
				},
				{
					"sampler":15,
					"target":{
						"node":5,
						"path":"translation"
					}
				},
				{
					"sampler":16,
					"target":{
						"node":5,
						"path":"rotation"
					}
				},
				{
					"sampler":17,
					"target":{
						"node":5,
						"path":"scale"
					}
				},
				{
					"sampler":18,
					"target":{
						"node":4,
						"path":"translation"
					}
				},
				{
					"sampler":19,
					"target":{
						"node":4,
						"path":"rotation"
					}
				},
				{
					"sampler":20,
					"target":{
						"node":4,
						"path":"scale"
					}
				},
				{
					"sampler":21,
					"target":{
						"node":3,
						"path":"translation"
					}
				},
				{
					"sampler":22,
					"target":{
						"node":3,
						"path":"rotation"
					}
				},
				{
					"sampler":23,
					"target":{
						"node":3,
						"path":"scale"
					}
				},
				{
					"sampler":24,
					"target":{
						"node":6,
						"path":"translation"
					}
				},
				{
					"sampler":25,
					"target":{
						"node":6,
						"path":"rotation"
					}
				},
				{
					"sampler":26,
					"target":{
						"node":6,
						"path":"scale"
					}
				},
				{
					"sampler":27,
					"target":{
						"node":10,
						"path":"translation"
					}
				},
				{
					"sampler":28,
					"target":{
						"node":10,
						"path":"rotation"
					}
				},
				{
					"sampler":29,
					"target":{
						"node":10,
						"path":"scale"
					}
				},
				{
					"sampler":30,
					"target":{
						"node":9,
						"path":"translation"
					}
				},
				{
					"sampler":31,
					"target":{
						"node":9,
						"path":"rotation"
					}
				},
				{
					"sampler":32,
					"target":{
						"node":9,
						"path":"scale"
					}
				},
				{
					"sampler":33,
					"target":{
						"node":8,
						"path":"translation"
					}
				},
				{
					"sampler":34,
					"target":{
						"node":8,
						"path":"rotation"
					}
				},
				{
					"sampler":35,
					"target":{
						"node":8,
						"path":"scale"
					}
				},
				{
					"sampler":36,
					"target":{
						"node":13,
						"path":"translation"
					}
				},
				{
					"sampler":37,
					"target":{
						"node":13,
						"path":"rotation"
					}
				},
				{
					"sampler":38,
					"target":{
						"node":13,
						"path":"scale"
					}
				},
				{
					"sampler":39,
					"target":{
						"node":12,
						"path":"translation"
					}
				},
				{
					"sampler":40,
					"target":{
						"node":12,
						"path":"rotation"
					}
				},
				{
					"sampler":41,
					"target":{
						"node":12,
						"path":"scale"
					}
				},
				{
					"sampler":42,
					"target":{
						"node":11,
						"path":"translation"
					}
				},
				{
					"sampler":43,
					"target":{
						"node":11,
						"path":"rotation"
					}
				},
				{
					"sampler":44,
					"target":{
						"node":11,
						"path":"scale"
					}
				}
			],
			"name":"attack1",
			"samplers":[
				{
					"input":7,
					"interpolation":"STEP",
					"output":8
				},
				{
					"input":7,
					"interpolation":"STEP",
					"output":9
				},
				{
					"input":7,
					"interpolation":"STEP",
					"output":10
				},
				{
					"input":7,
					"interpolation":"STEP",
					"output":11
				},
				{
					"input":7,
					"interpolation":"STEP",
					"output":12
				},
				{
					"input":7,
					"interpolation":"STEP",
					"output":13
				},
				{
					"input":7,
					"interpolation":"STEP",
					"output":14
				},
				{
					"input":15,
					"interpolation":"LINEAR",
					"output":16
				},
				{
					"input":7,
					"interpolation":"STEP",
					"output":17
				},
				{
					"input":7,
					"interpolation":"STEP",
					"output":18
				},
				{
					"input":7,
					"interpolation":"STEP",
					"output":19
				},
				{
					"input":7,
					"interpolation":"STEP",
					"output":20
				},
				{
					"input":7,
					"interpolation":"STEP",
					"output":21
				},
				{
					"input":7,
					"interpolation":"LINEAR",
					"output":22
				},
				{
					"input":7,
					"interpolation":"STEP",
					"output":23
				},
				{
					"input":7,
					"interpolation":"STEP",
					"output":24
				},
				{
					"input":15,
					"interpolation":"LINEAR",
					"output":25
				},
				{
					"input":7,
					"interpolation":"STEP",
					"output":26
				},
				{
					"input":7,
					"interpolation":"STEP",
					"output":27
				},
				{
					"input":15,
					"interpolation":"LINEAR",
					"output":28
				},
				{
					"input":7,
					"interpolation":"STEP",
					"output":29
				},
				{
					"input":7,
					"interpolation":"STEP",
					"output":30
				},
				{
					"input":15,
					"interpolation":"LINEAR",
					"output":31
				},
				{
					"input":7,
					"interpolation":"STEP",
					"output":32
				},
				{
					"input":7,
					"interpolation":"STEP",
					"output":33
				},
				{
					"input":7,
					"interpolation":"STEP",
					"output":34
				},
				{
					"input":7,
					"interpolation":"STEP",
					"output":35
				},
				{
					"input":7,
					"interpolation":"STEP",
					"output":36
				},
				{
					"input":7,
					"interpolation":"STEP",
					"output":37
				},
				{
					"input":7,
					"interpolation":"STEP",
					"output":38
				},
				{
					"input":7,
					"interpolation":"STEP",
					"output":39
				},
				{
					"input":7,
					"interpolation":"STEP",
					"output":40
				},
				{
					"input":7,
					"interpolation":"STEP",
					"output":41
				},
				{
					"input":7,
					"interpolation":"STEP",
					"output":42
				},
				{
					"input":7,
					"interpolation":"STEP",
					"output":43
				},
				{
					"input":7,
					"interpolation":"STEP",
					"output":44
				},
				{
					"input":7,
					"interpolation":"STEP",
					"output":45
				},
				{
					"input":7,
					"interpolation":"STEP",
					"output":46
				},
				{
					"input":7,
					"interpolation":"STEP",
					"output":47
				},
				{
					"input":7,
					"interpolation":"STEP",
					"output":48
				},
				{
					"input":7,
					"interpolation":"STEP",
					"output":49
				},
				{
					"input":7,
					"interpolation":"STEP",
					"output":50
				},
				{
					"input":7,
					"interpolation":"STEP",
					"output":51
				},
				{
					"input":7,
					"interpolation":"STEP",
					"output":52
				},
				{
					"input":7,
					"interpolation":"STEP",
					"output":53
				}
			]
		},
		{
			"channels":[
				{
					"sampler":0,
					"target":{
						"node":14,
						"path":"translation"
					}
				},
				{
					"sampler":1,
					"target":{
						"node":14,
						"path":"rotation"
					}
				},
				{
					"sampler":2,
					"target":{
						"node":14,
						"path":"scale"
					}
				},
				{
					"sampler":3,
					"target":{
						"node":7,
						"path":"translation"
					}
				},
				{
					"sampler":4,
					"target":{
						"node":7,
						"path":"rotation"
					}
				},
				{
					"sampler":5,
					"target":{
						"node":7,
						"path":"scale"
					}
				},
				{
					"sampler":6,
					"target":{
						"node":2,
						"path":"translation"
					}
				},
				{
					"sampler":7,
					"target":{
						"node":2,
						"path":"rotation"
					}
				},
				{
					"sampler":8,
					"target":{
						"node":2,
						"path":"scale"
					}
				},
				{
					"sampler":9,
					"target":{
						"node":1,
						"path":"translation"
					}
				},
				{
					"sampler":10,
					"target":{
						"node":1,
						"path":"rotation"
					}
				},
				{
					"sampler":11,
					"target":{
						"node":1,
						"path":"scale"
					}
				},
				{
					"sampler":12,
					"target":{
						"node":0,
						"path":"translation"
					}
				},
				{
					"sampler":13,
					"target":{
						"node":0,
						"path":"rotation"
					}
				},
				{
					"sampler":14,
					"target":{
						"node":0,
						"path":"scale"
					}
				},
				{
					"sampler":15,
					"target":{
						"node":5,
						"path":"translation"
					}
				},
				{
					"sampler":16,
					"target":{
						"node":5,
						"path":"rotation"
					}
				},
				{
					"sampler":17,
					"target":{
						"node":5,
						"path":"scale"
					}
				},
				{
					"sampler":18,
					"target":{
						"node":4,
						"path":"translation"
					}
				},
				{
					"sampler":19,
					"target":{
						"node":4,
						"path":"rotation"
					}
				},
				{
					"sampler":20,
					"target":{
						"node":4,
						"path":"scale"
					}
				},
				{
					"sampler":21,
					"target":{
						"node":3,
						"path":"translation"
					}
				},
				{
					"sampler":22,
					"target":{
						"node":3,
						"path":"rotation"
					}
				},
				{
					"sampler":23,
					"target":{
						"node":3,
						"path":"scale"
					}
				},
				{
					"sampler":24,
					"target":{
						"node":6,
						"path":"translation"
					}
				},
				{
					"sampler":25,
					"target":{
						"node":6,
						"path":"rotation"
					}
				},
				{
					"sampler":26,
					"target":{
						"node":6,
						"path":"scale"
					}
				},
				{
					"sampler":27,
					"target":{
						"node":10,
						"path":"translation"
					}
				},
				{
					"sampler":28,
					"target":{
						"node":10,
						"path":"rotation"
					}
				},
				{
					"sampler":29,
					"target":{
						"node":10,
						"path":"scale"
					}
				},
				{
					"sampler":30,
					"target":{
						"node":9,
						"path":"translation"
					}
				},
				{
					"sampler":31,
					"target":{
						"node":9,
						"path":"rotation"
					}
				},
				{
					"sampler":32,
					"target":{
						"node":9,
						"path":"scale"
					}
				},
				{
					"sampler":33,
					"target":{
						"node":8,
						"path":"translation"
					}
				},
				{
					"sampler":34,
					"target":{
						"node":8,
						"path":"rotation"
					}
				},
				{
					"sampler":35,
					"target":{
						"node":8,
						"path":"scale"
					}
				},
				{
					"sampler":36,
					"target":{
						"node":13,
						"path":"translation"
					}
				},
				{
					"sampler":37,
					"target":{
						"node":13,
						"path":"rotation"
					}
				},
				{
					"sampler":38,
					"target":{
						"node":13,
						"path":"scale"
					}
				},
				{
					"sampler":39,
					"target":{
						"node":12,
						"path":"translation"
					}
				},
				{
					"sampler":40,
					"target":{
						"node":12,
						"path":"rotation"
					}
				},
				{
					"sampler":41,
					"target":{
						"node":12,
						"path":"scale"
					}
				},
				{
					"sampler":42,
					"target":{
						"node":11,
						"path":"translation"
					}
				},
				{
					"sampler":43,
					"target":{
						"node":11,
						"path":"rotation"
					}
				},
				{
					"sampler":44,
					"target":{
						"node":11,
						"path":"scale"
					}
				}
			],
			"name":"death",
			"samplers":[
				{
					"input":54,
					"interpolation":"STEP",
					"output":55
				},
				{
					"input":56,
					"interpolation":"LINEAR",
					"output":57
				},
				{
					"input":54,
					"interpolation":"STEP",
					"output":58
				},
				{
					"input":54,
					"interpolation":"LINEAR",
					"output":59
				},
				{
					"input":54,
					"interpolation":"LINEAR",
					"output":60
				},
				{
					"input":54,
					"interpolation":"STEP",
					"output":61
				},
				{
					"input":54,
					"interpolation":"LINEAR",
					"output":62
				},
				{
					"input":56,
					"interpolation":"LINEAR",
					"output":63
				},
				{
					"input":54,
					"interpolation":"STEP",
					"output":64
				},
				{
					"input":54,
					"interpolation":"LINEAR",
					"output":65
				},
				{
					"input":56,
					"interpolation":"LINEAR",
					"output":66
				},
				{
					"input":54,
					"interpolation":"STEP",
					"output":67
				},
				{
					"input":54,
					"interpolation":"LINEAR",
					"output":68
				},
				{
					"input":56,
					"interpolation":"LINEAR",
					"output":69
				},
				{
					"input":54,
					"interpolation":"LINEAR",
					"output":70
				},
				{
					"input":54,
					"interpolation":"LINEAR",
					"output":71
				},
				{
					"input":56,
					"interpolation":"LINEAR",
					"output":72
				},
				{
					"input":54,
					"interpolation":"STEP",
					"output":73
				},
				{
					"input":54,
					"interpolation":"LINEAR",
					"output":74
				},
				{
					"input":56,
					"interpolation":"LINEAR",
					"output":75
				},
				{
					"input":54,
					"interpolation":"STEP",
					"output":76
				},
				{
					"input":54,
					"interpolation":"LINEAR",
					"output":77
				},
				{
					"input":54,
					"interpolation":"LINEAR",
					"output":78
				},
				{
					"input":54,
					"interpolation":"STEP",
					"output":79
				},
				{
					"input":54,
					"interpolation":"LINEAR",
					"output":80
				},
				{
					"input":54,
					"interpolation":"LINEAR",
					"output":81
				},
				{
					"input":54,
					"interpolation":"STEP",
					"output":82
				},
				{
					"input":54,
					"interpolation":"LINEAR",
					"output":83
				},
				{
					"input":54,
					"interpolation":"LINEAR",
					"output":84
				},
				{
					"input":54,
					"interpolation":"STEP",
					"output":85
				},
				{
					"input":54,
					"interpolation":"LINEAR",
					"output":86
				},
				{
					"input":54,
					"interpolation":"LINEAR",
					"output":87
				},
				{
					"input":54,
					"interpolation":"STEP",
					"output":88
				},
				{
					"input":54,
					"interpolation":"LINEAR",
					"output":89
				},
				{
					"input":54,
					"interpolation":"LINEAR",
					"output":90
				},
				{
					"input":54,
					"interpolation":"STEP",
					"output":91
				},
				{
					"input":54,
					"interpolation":"LINEAR",
					"output":92
				},
				{
					"input":54,
					"interpolation":"LINEAR",
					"output":93
				},
				{
					"input":54,
					"interpolation":"STEP",
					"output":94
				},
				{
					"input":54,
					"interpolation":"LINEAR",
					"output":95
				},
				{
					"input":54,
					"interpolation":"LINEAR",
					"output":96
				},
				{
					"input":54,
					"interpolation":"STEP",
					"output":97
				},
				{
					"input":54,
					"interpolation":"LINEAR",
					"output":98
				},
				{
					"input":54,
					"interpolation":"LINEAR",
					"output":99
				},
				{
					"input":54,
					"interpolation":"STEP",
					"output":100
				}
			]
		},
		{
			"channels":[
				{
					"sampler":0,
					"target":{
						"node":14,
						"path":"translation"
					}
				},
				{
					"sampler":1,
					"target":{
						"node":14,
						"path":"rotation"
					}
				},
				{
					"sampler":2,
					"target":{
						"node":14,
						"path":"scale"
					}
				},
				{
					"sampler":3,
					"target":{
						"node":7,
						"path":"translation"
					}
				},
				{
					"sampler":4,
					"target":{
						"node":7,
						"path":"rotation"
					}
				},
				{
					"sampler":5,
					"target":{
						"node":7,
						"path":"scale"
					}
				},
				{
					"sampler":6,
					"target":{
						"node":2,
						"path":"translation"
					}
				},
				{
					"sampler":7,
					"target":{
						"node":2,
						"path":"rotation"
					}
				},
				{
					"sampler":8,
					"target":{
						"node":2,
						"path":"scale"
					}
				},
				{
					"sampler":9,
					"target":{
						"node":1,
						"path":"translation"
					}
				},
				{
					"sampler":10,
					"target":{
						"node":1,
						"path":"rotation"
					}
				},
				{
					"sampler":11,
					"target":{
						"node":1,
						"path":"scale"
					}
				},
				{
					"sampler":12,
					"target":{
						"node":0,
						"path":"translation"
					}
				},
				{
					"sampler":13,
					"target":{
						"node":0,
						"path":"rotation"
					}
				},
				{
					"sampler":14,
					"target":{
						"node":0,
						"path":"scale"
					}
				},
				{
					"sampler":15,
					"target":{
						"node":5,
						"path":"translation"
					}
				},
				{
					"sampler":16,
					"target":{
						"node":5,
						"path":"rotation"
					}
				},
				{
					"sampler":17,
					"target":{
						"node":5,
						"path":"scale"
					}
				},
				{
					"sampler":18,
					"target":{
						"node":4,
						"path":"translation"
					}
				},
				{
					"sampler":19,
					"target":{
						"node":4,
						"path":"rotation"
					}
				},
				{
					"sampler":20,
					"target":{
						"node":4,
						"path":"scale"
					}
				},
				{
					"sampler":21,
					"target":{
						"node":3,
						"path":"translation"
					}
				},
				{
					"sampler":22,
					"target":{
						"node":3,
						"path":"rotation"
					}
				},
				{
					"sampler":23,
					"target":{
						"node":3,
						"path":"scale"
					}
				},
				{
					"sampler":24,
					"target":{
						"node":6,
						"path":"translation"
					}
				},
				{
					"sampler":25,
					"target":{
						"node":6,
						"path":"rotation"
					}
				},
				{
					"sampler":26,
					"target":{
						"node":6,
						"path":"scale"
					}
				},
				{
					"sampler":27,
					"target":{
						"node":10,
						"path":"translation"
					}
				},
				{
					"sampler":28,
					"target":{
						"node":10,
						"path":"rotation"
					}
				},
				{
					"sampler":29,
					"target":{
						"node":10,
						"path":"scale"
					}
				},
				{
					"sampler":30,
					"target":{
						"node":9,
						"path":"translation"
					}
				},
				{
					"sampler":31,
					"target":{
						"node":9,
						"path":"rotation"
					}
				},
				{
					"sampler":32,
					"target":{
						"node":9,
						"path":"scale"
					}
				},
				{
					"sampler":33,
					"target":{
						"node":8,
						"path":"translation"
					}
				},
				{
					"sampler":34,
					"target":{
						"node":8,
						"path":"rotation"
					}
				},
				{
					"sampler":35,
					"target":{
						"node":8,
						"path":"scale"
					}
				},
				{
					"sampler":36,
					"target":{
						"node":13,
						"path":"translation"
					}
				},
				{
					"sampler":37,
					"target":{
						"node":13,
						"path":"rotation"
					}
				},
				{
					"sampler":38,
					"target":{
						"node":13,
						"path":"scale"
					}
				},
				{
					"sampler":39,
					"target":{
						"node":12,
						"path":"translation"
					}
				},
				{
					"sampler":40,
					"target":{
						"node":12,
						"path":"rotation"
					}
				},
				{
					"sampler":41,
					"target":{
						"node":12,
						"path":"scale"
					}
				},
				{
					"sampler":42,
					"target":{
						"node":11,
						"path":"translation"
					}
				},
				{
					"sampler":43,
					"target":{
						"node":11,
						"path":"rotation"
					}
				},
				{
					"sampler":44,
					"target":{
						"node":11,
						"path":"scale"
					}
				}
			],
			"name":"idle",
			"samplers":[
				{
					"input":7,
					"interpolation":"STEP",
					"output":101
				},
				{
					"input":7,
					"interpolation":"STEP",
					"output":102
				},
				{
					"input":7,
					"interpolation":"STEP",
					"output":103
				},
				{
					"input":7,
					"interpolation":"STEP",
					"output":104
				},
				{
					"input":7,
					"interpolation":"STEP",
					"output":105
				},
				{
					"input":7,
					"interpolation":"STEP",
					"output":106
				},
				{
					"input":7,
					"interpolation":"STEP",
					"output":107
				},
				{
					"input":15,
					"interpolation":"LINEAR",
					"output":108
				},
				{
					"input":7,
					"interpolation":"STEP",
					"output":109
				},
				{
					"input":7,
					"interpolation":"STEP",
					"output":110
				},
				{
					"input":7,
					"interpolation":"STEP",
					"output":111
				},
				{
					"input":7,
					"interpolation":"STEP",
					"output":112
				},
				{
					"input":7,
					"interpolation":"STEP",
					"output":113
				},
				{
					"input":7,
					"interpolation":"STEP",
					"output":114
				},
				{
					"input":7,
					"interpolation":"STEP",
					"output":115
				},
				{
					"input":7,
					"interpolation":"STEP",
					"output":116
				},
				{
					"input":15,
					"interpolation":"LINEAR",
					"output":117
				},
				{
					"input":7,
					"interpolation":"STEP",
					"output":118
				},
				{
					"input":7,
					"interpolation":"STEP",
					"output":119
				},
				{
					"input":7,
					"interpolation":"STEP",
					"output":120
				},
				{
					"input":7,
					"interpolation":"STEP",
					"output":121
				},
				{
					"input":7,
					"interpolation":"STEP",
					"output":122
				},
				{
					"input":7,
					"interpolation":"STEP",
					"output":123
				},
				{
					"input":7,
					"interpolation":"STEP",
					"output":124
				},
				{
					"input":7,
					"interpolation":"STEP",
					"output":125
				},
				{
					"input":7,
					"interpolation":"STEP",
					"output":126
				},
				{
					"input":7,
					"interpolation":"STEP",
					"output":127
				},
				{
					"input":7,
					"interpolation":"STEP",
					"output":128
				},
				{
					"input":7,
					"interpolation":"STEP",
					"output":129
				},
				{
					"input":7,
					"interpolation":"STEP",
					"output":130
				},
				{
					"input":7,
					"interpolation":"STEP",
					"output":131
				},
				{
					"input":7,
					"interpolation":"STEP",
					"output":132
				},
				{
					"input":7,
					"interpolation":"STEP",
					"output":133
				},
				{
					"input":7,
					"interpolation":"STEP",
					"output":134
				},
				{
					"input":7,
					"interpolation":"STEP",
					"output":135
				},
				{
					"input":7,
					"interpolation":"STEP",
					"output":136
				},
				{
					"input":7,
					"interpolation":"STEP",
					"output":137
				},
				{
					"input":7,
					"interpolation":"STEP",
					"output":138
				},
				{
					"input":7,
					"interpolation":"STEP",
					"output":139
				},
				{
					"input":7,
					"interpolation":"STEP",
					"output":140
				},
				{
					"input":7,
					"interpolation":"STEP",
					"output":141
				},
				{
					"input":7,
					"interpolation":"STEP",
					"output":142
				},
				{
					"input":7,
					"interpolation":"STEP",
					"output":143
				},
				{
					"input":7,
					"interpolation":"STEP",
					"output":144
				},
				{
					"input":7,
					"interpolation":"STEP",
					"output":145
				}
			]
		},
		{
			"channels":[
				{
					"sampler":0,
					"target":{
						"node":14,
						"path":"translation"
					}
				},
				{
					"sampler":1,
					"target":{
						"node":14,
						"path":"rotation"
					}
				},
				{
					"sampler":2,
					"target":{
						"node":14,
						"path":"scale"
					}
				},
				{
					"sampler":3,
					"target":{
						"node":7,
						"path":"translation"
					}
				},
				{
					"sampler":4,
					"target":{
						"node":7,
						"path":"rotation"
					}
				},
				{
					"sampler":5,
					"target":{
						"node":7,
						"path":"scale"
					}
				},
				{
					"sampler":6,
					"target":{
						"node":2,
						"path":"translation"
					}
				},
				{
					"sampler":7,
					"target":{
						"node":2,
						"path":"rotation"
					}
				},
				{
					"sampler":8,
					"target":{
						"node":2,
						"path":"scale"
					}
				},
				{
					"sampler":9,
					"target":{
						"node":1,
						"path":"translation"
					}
				},
				{
					"sampler":10,
					"target":{
						"node":1,
						"path":"rotation"
					}
				},
				{
					"sampler":11,
					"target":{
						"node":1,
						"path":"scale"
					}
				},
				{
					"sampler":12,
					"target":{
						"node":0,
						"path":"translation"
					}
				},
				{
					"sampler":13,
					"target":{
						"node":0,
						"path":"rotation"
					}
				},
				{
					"sampler":14,
					"target":{
						"node":0,
						"path":"scale"
					}
				},
				{
					"sampler":15,
					"target":{
						"node":5,
						"path":"translation"
					}
				},
				{
					"sampler":16,
					"target":{
						"node":5,
						"path":"rotation"
					}
				},
				{
					"sampler":17,
					"target":{
						"node":5,
						"path":"scale"
					}
				},
				{
					"sampler":18,
					"target":{
						"node":4,
						"path":"translation"
					}
				},
				{
					"sampler":19,
					"target":{
						"node":4,
						"path":"rotation"
					}
				},
				{
					"sampler":20,
					"target":{
						"node":4,
						"path":"scale"
					}
				},
				{
					"sampler":21,
					"target":{
						"node":3,
						"path":"translation"
					}
				},
				{
					"sampler":22,
					"target":{
						"node":3,
						"path":"rotation"
					}
				},
				{
					"sampler":23,
					"target":{
						"node":3,
						"path":"scale"
					}
				},
				{
					"sampler":24,
					"target":{
						"node":6,
						"path":"translation"
					}
				},
				{
					"sampler":25,
					"target":{
						"node":6,
						"path":"rotation"
					}
				},
				{
					"sampler":26,
					"target":{
						"node":6,
						"path":"scale"
					}
				},
				{
					"sampler":27,
					"target":{
						"node":10,
						"path":"translation"
					}
				},
				{
					"sampler":28,
					"target":{
						"node":10,
						"path":"rotation"
					}
				},
				{
					"sampler":29,
					"target":{
						"node":10,
						"path":"scale"
					}
				},
				{
					"sampler":30,
					"target":{
						"node":9,
						"path":"translation"
					}
				},
				{
					"sampler":31,
					"target":{
						"node":9,
						"path":"rotation"
					}
				},
				{
					"sampler":32,
					"target":{
						"node":9,
						"path":"scale"
					}
				},
				{
					"sampler":33,
					"target":{
						"node":8,
						"path":"translation"
					}
				},
				{
					"sampler":34,
					"target":{
						"node":8,
						"path":"rotation"
					}
				},
				{
					"sampler":35,
					"target":{
						"node":8,
						"path":"scale"
					}
				},
				{
					"sampler":36,
					"target":{
						"node":13,
						"path":"translation"
					}
				},
				{
					"sampler":37,
					"target":{
						"node":13,
						"path":"rotation"
					}
				},
				{
					"sampler":38,
					"target":{
						"node":13,
						"path":"scale"
					}
				},
				{
					"sampler":39,
					"target":{
						"node":12,
						"path":"translation"
					}
				},
				{
					"sampler":40,
					"target":{
						"node":12,
						"path":"rotation"
					}
				},
				{
					"sampler":41,
					"target":{
						"node":12,
						"path":"scale"
					}
				},
				{
					"sampler":42,
					"target":{
						"node":11,
						"path":"translation"
					}
				},
				{
					"sampler":43,
					"target":{
						"node":11,
						"path":"rotation"
					}
				},
				{
					"sampler":44,
					"target":{
						"node":11,
						"path":"scale"
					}
				}
			],
			"name":"run",
			"samplers":[
				{
					"input":7,
					"interpolation":"STEP",
					"output":146
				},
				{
					"input":7,
					"interpolation":"STEP",
					"output":147
				},
				{
					"input":7,
					"interpolation":"STEP",
					"output":148
				},
				{
					"input":7,
					"interpolation":"STEP",
					"output":149
				},
				{
					"input":7,
					"interpolation":"STEP",
					"output":150
				},
				{
					"input":7,
					"interpolation":"STEP",
					"output":151
				},
				{
					"input":7,
					"interpolation":"STEP",
					"output":152
				},
				{
					"input":7,
					"interpolation":"STEP",
					"output":153
				},
				{
					"input":7,
					"interpolation":"STEP",
					"output":154
				},
				{
					"input":7,
					"interpolation":"STEP",
					"output":155
				},
				{
					"input":15,
					"interpolation":"LINEAR",
					"output":156
				},
				{
					"input":7,
					"interpolation":"STEP",
					"output":157
				},
				{
					"input":7,
					"interpolation":"STEP",
					"output":158
				},
				{
					"input":7,
					"interpolation":"STEP",
					"output":159
				},
				{
					"input":7,
					"interpolation":"STEP",
					"output":160
				},
				{
					"input":7,
					"interpolation":"STEP",
					"output":161
				},
				{
					"input":7,
					"interpolation":"STEP",
					"output":162
				},
				{
					"input":7,
					"interpolation":"STEP",
					"output":163
				},
				{
					"input":7,
					"interpolation":"STEP",
					"output":164
				},
				{
					"input":15,
					"interpolation":"LINEAR",
					"output":165
				},
				{
					"input":7,
					"interpolation":"STEP",
					"output":166
				},
				{
					"input":7,
					"interpolation":"STEP",
					"output":167
				},
				{
					"input":7,
					"interpolation":"STEP",
					"output":168
				},
				{
					"input":7,
					"interpolation":"STEP",
					"output":169
				},
				{
					"input":7,
					"interpolation":"STEP",
					"output":170
				},
				{
					"input":7,
					"interpolation":"STEP",
					"output":171
				},
				{
					"input":7,
					"interpolation":"STEP",
					"output":172
				},
				{
					"input":7,
					"interpolation":"STEP",
					"output":173
				},
				{
					"input":15,
					"interpolation":"LINEAR",
					"output":174
				},
				{
					"input":7,
					"interpolation":"STEP",
					"output":175
				},
				{
					"input":7,
					"interpolation":"STEP",
					"output":176
				},
				{
					"input":15,
					"interpolation":"LINEAR",
					"output":177
				},
				{
					"input":7,
					"interpolation":"STEP",
					"output":178
				},
				{
					"input":7,
					"interpolation":"STEP",
					"output":179
				},
				{
					"input":7,
					"interpolation":"STEP",
					"output":180
				},
				{
					"input":7,
					"interpolation":"STEP",
					"output":181
				},
				{
					"input":7,
					"interpolation":"STEP",
					"output":182
				},
				{
					"input":15,
					"interpolation":"LINEAR",
					"output":183
				},
				{
					"input":7,
					"interpolation":"STEP",
					"output":184
				},
				{
					"input":7,
					"interpolation":"STEP",
					"output":185
				},
				{
					"input":15,
					"interpolation":"LINEAR",
					"output":186
				},
				{
					"input":7,
					"interpolation":"STEP",
					"output":187
				},
				{
					"input":7,
					"interpolation":"STEP",
					"output":188
				},
				{
					"input":7,
					"interpolation":"STEP",
					"output":189
				},
				{
					"input":7,
					"interpolation":"STEP",
					"output":190
				}
			]
		},
		{
			"channels":[
				{
					"sampler":0,
					"target":{
						"node":14,
						"path":"translation"
					}
				},
				{
					"sampler":1,
					"target":{
						"node":14,
						"path":"rotation"
					}
				},
				{
					"sampler":2,
					"target":{
						"node":14,
						"path":"scale"
					}
				},
				{
					"sampler":3,
					"target":{
						"node":7,
						"path":"translation"
					}
				},
				{
					"sampler":4,
					"target":{
						"node":7,
						"path":"rotation"
					}
				},
				{
					"sampler":5,
					"target":{
						"node":7,
						"path":"scale"
					}
				},
				{
					"sampler":6,
					"target":{
						"node":2,
						"path":"translation"
					}
				},
				{
					"sampler":7,
					"target":{
						"node":2,
						"path":"rotation"
					}
				},
				{
					"sampler":8,
					"target":{
						"node":2,
						"path":"scale"
					}
				},
				{
					"sampler":9,
					"target":{
						"node":1,
						"path":"translation"
					}
				},
				{
					"sampler":10,
					"target":{
						"node":1,
						"path":"rotation"
					}
				},
				{
					"sampler":11,
					"target":{
						"node":1,
						"path":"scale"
					}
				},
				{
					"sampler":12,
					"target":{
						"node":0,
						"path":"translation"
					}
				},
				{
					"sampler":13,
					"target":{
						"node":0,
						"path":"rotation"
					}
				},
				{
					"sampler":14,
					"target":{
						"node":0,
						"path":"scale"
					}
				},
				{
					"sampler":15,
					"target":{
						"node":5,
						"path":"translation"
					}
				},
				{
					"sampler":16,
					"target":{
						"node":5,
						"path":"rotation"
					}
				},
				{
					"sampler":17,
					"target":{
						"node":5,
						"path":"scale"
					}
				},
				{
					"sampler":18,
					"target":{
						"node":4,
						"path":"translation"
					}
				},
				{
					"sampler":19,
					"target":{
						"node":4,
						"path":"rotation"
					}
				},
				{
					"sampler":20,
					"target":{
						"node":4,
						"path":"scale"
					}
				},
				{
					"sampler":21,
					"target":{
						"node":3,
						"path":"translation"
					}
				},
				{
					"sampler":22,
					"target":{
						"node":3,
						"path":"rotation"
					}
				},
				{
					"sampler":23,
					"target":{
						"node":3,
						"path":"scale"
					}
				},
				{
					"sampler":24,
					"target":{
						"node":6,
						"path":"translation"
					}
				},
				{
					"sampler":25,
					"target":{
						"node":6,
						"path":"rotation"
					}
				},
				{
					"sampler":26,
					"target":{
						"node":6,
						"path":"scale"
					}
				},
				{
					"sampler":27,
					"target":{
						"node":10,
						"path":"translation"
					}
				},
				{
					"sampler":28,
					"target":{
						"node":10,
						"path":"rotation"
					}
				},
				{
					"sampler":29,
					"target":{
						"node":10,
						"path":"scale"
					}
				},
				{
					"sampler":30,
					"target":{
						"node":9,
						"path":"translation"
					}
				},
				{
					"sampler":31,
					"target":{
						"node":9,
						"path":"rotation"
					}
				},
				{
					"sampler":32,
					"target":{
						"node":9,
						"path":"scale"
					}
				},
				{
					"sampler":33,
					"target":{
						"node":8,
						"path":"translation"
					}
				},
				{
					"sampler":34,
					"target":{
						"node":8,
						"path":"rotation"
					}
				},
				{
					"sampler":35,
					"target":{
						"node":8,
						"path":"scale"
					}
				},
				{
					"sampler":36,
					"target":{
						"node":13,
						"path":"translation"
					}
				},
				{
					"sampler":37,
					"target":{
						"node":13,
						"path":"rotation"
					}
				},
				{
					"sampler":38,
					"target":{
						"node":13,
						"path":"scale"
					}
				},
				{
					"sampler":39,
					"target":{
						"node":12,
						"path":"translation"
					}
				},
				{
					"sampler":40,
					"target":{
						"node":12,
						"path":"rotation"
					}
				},
				{
					"sampler":41,
					"target":{
						"node":12,
						"path":"scale"
					}
				},
				{
					"sampler":42,
					"target":{
						"node":11,
						"path":"translation"
					}
				},
				{
					"sampler":43,
					"target":{
						"node":11,
						"path":"rotation"
					}
				},
				{
					"sampler":44,
					"target":{
						"node":11,
						"path":"scale"
					}
				}
			],
			"name":"stunned",
			"samplers":[
				{
					"input":7,
					"interpolation":"STEP",
					"output":191
				},
				{
					"input":7,
					"interpolation":"STEP",
					"output":192
				},
				{
					"input":7,
					"interpolation":"STEP",
					"output":193
				},
				{
					"input":7,
					"interpolation":"STEP",
					"output":194
				},
				{
					"input":7,
					"interpolation":"STEP",
					"output":195
				},
				{
					"input":7,
					"interpolation":"STEP",
					"output":196
				},
				{
					"input":7,
					"interpolation":"STEP",
					"output":197
				},
				{
					"input":15,
					"interpolation":"LINEAR",
					"output":198
				},
				{
					"input":7,
					"interpolation":"STEP",
					"output":199
				},
				{
					"input":7,
					"interpolation":"STEP",
					"output":200
				},
				{
					"input":15,
					"interpolation":"LINEAR",
					"output":201
				},
				{
					"input":7,
					"interpolation":"STEP",
					"output":202
				},
				{
					"input":7,
					"interpolation":"STEP",
					"output":203
				},
				{
					"input":7,
					"interpolation":"STEP",
					"output":204
				},
				{
					"input":7,
					"interpolation":"STEP",
					"output":205
				},
				{
					"input":7,
					"interpolation":"STEP",
					"output":206
				},
				{
					"input":15,
					"interpolation":"LINEAR",
					"output":207
				},
				{
					"input":7,
					"interpolation":"STEP",
					"output":208
				},
				{
					"input":7,
					"interpolation":"STEP",
					"output":209
				},
				{
					"input":15,
					"interpolation":"LINEAR",
					"output":210
				},
				{
					"input":7,
					"interpolation":"STEP",
					"output":211
				},
				{
					"input":7,
					"interpolation":"STEP",
					"output":212
				},
				{
					"input":7,
					"interpolation":"STEP",
					"output":213
				},
				{
					"input":7,
					"interpolation":"STEP",
					"output":214
				},
				{
					"input":7,
					"interpolation":"STEP",
					"output":215
				},
				{
					"input":7,
					"interpolation":"STEP",
					"output":216
				},
				{
					"input":7,
					"interpolation":"STEP",
					"output":217
				},
				{
					"input":7,
					"interpolation":"STEP",
					"output":218
				},
				{
					"input":7,
					"interpolation":"STEP",
					"output":219
				},
				{
					"input":7,
					"interpolation":"STEP",
					"output":220
				},
				{
					"input":7,
					"interpolation":"STEP",
					"output":221
				},
				{
					"input":7,
					"interpolation":"STEP",
					"output":222
				},
				{
					"input":7,
					"interpolation":"STEP",
					"output":223
				},
				{
					"input":7,
					"interpolation":"STEP",
					"output":224
				},
				{
					"input":7,
					"interpolation":"STEP",
					"output":225
				},
				{
					"input":7,
					"interpolation":"STEP",
					"output":226
				},
				{
					"input":7,
					"interpolation":"STEP",
					"output":227
				},
				{
					"input":7,
					"interpolation":"STEP",
					"output":228
				},
				{
					"input":7,
					"interpolation":"STEP",
					"output":229
				},
				{
					"input":7,
					"interpolation":"STEP",
					"output":230
				},
				{
					"input":7,
					"interpolation":"STEP",
					"output":231
				},
				{
					"input":7,
					"interpolation":"STEP",
					"output":232
				},
				{
					"input":7,
					"interpolation":"STEP",
					"output":233
				},
				{
					"input":7,
					"interpolation":"STEP",
					"output":234
				},
				{
					"input":7,
					"interpolation":"STEP",
					"output":235
				}
			]
		},
		{
			"channels":[
				{
					"sampler":0,
					"target":{
						"node":14,
						"path":"translation"
					}
				},
				{
					"sampler":1,
					"target":{
						"node":14,
						"path":"rotation"
					}
				},
				{
					"sampler":2,
					"target":{
						"node":14,
						"path":"scale"
					}
				},
				{
					"sampler":3,
					"target":{
						"node":7,
						"path":"translation"
					}
				},
				{
					"sampler":4,
					"target":{
						"node":7,
						"path":"rotation"
					}
				},
				{
					"sampler":5,
					"target":{
						"node":7,
						"path":"scale"
					}
				},
				{
					"sampler":6,
					"target":{
						"node":2,
						"path":"translation"
					}
				},
				{
					"sampler":7,
					"target":{
						"node":2,
						"path":"rotation"
					}
				},
				{
					"sampler":8,
					"target":{
						"node":2,
						"path":"scale"
					}
				},
				{
					"sampler":9,
					"target":{
						"node":1,
						"path":"translation"
					}
				},
				{
					"sampler":10,
					"target":{
						"node":1,
						"path":"rotation"
					}
				},
				{
					"sampler":11,
					"target":{
						"node":1,
						"path":"scale"
					}
				},
				{
					"sampler":12,
					"target":{
						"node":0,
						"path":"translation"
					}
				},
				{
					"sampler":13,
					"target":{
						"node":0,
						"path":"rotation"
					}
				},
				{
					"sampler":14,
					"target":{
						"node":0,
						"path":"scale"
					}
				},
				{
					"sampler":15,
					"target":{
						"node":5,
						"path":"translation"
					}
				},
				{
					"sampler":16,
					"target":{
						"node":5,
						"path":"rotation"
					}
				},
				{
					"sampler":17,
					"target":{
						"node":5,
						"path":"scale"
					}
				},
				{
					"sampler":18,
					"target":{
						"node":4,
						"path":"translation"
					}
				},
				{
					"sampler":19,
					"target":{
						"node":4,
						"path":"rotation"
					}
				},
				{
					"sampler":20,
					"target":{
						"node":4,
						"path":"scale"
					}
				},
				{
					"sampler":21,
					"target":{
						"node":3,
						"path":"translation"
					}
				},
				{
					"sampler":22,
					"target":{
						"node":3,
						"path":"rotation"
					}
				},
				{
					"sampler":23,
					"target":{
						"node":3,
						"path":"scale"
					}
				},
				{
					"sampler":24,
					"target":{
						"node":6,
						"path":"translation"
					}
				},
				{
					"sampler":25,
					"target":{
						"node":6,
						"path":"rotation"
					}
				},
				{
					"sampler":26,
					"target":{
						"node":6,
						"path":"scale"
					}
				},
				{
					"sampler":27,
					"target":{
						"node":10,
						"path":"translation"
					}
				},
				{
					"sampler":28,
					"target":{
						"node":10,
						"path":"rotation"
					}
				},
				{
					"sampler":29,
					"target":{
						"node":10,
						"path":"scale"
					}
				},
				{
					"sampler":30,
					"target":{
						"node":9,
						"path":"translation"
					}
				},
				{
					"sampler":31,
					"target":{
						"node":9,
						"path":"rotation"
					}
				},
				{
					"sampler":32,
					"target":{
						"node":9,
						"path":"scale"
					}
				},
				{
					"sampler":33,
					"target":{
						"node":8,
						"path":"translation"
					}
				},
				{
					"sampler":34,
					"target":{
						"node":8,
						"path":"rotation"
					}
				},
				{
					"sampler":35,
					"target":{
						"node":8,
						"path":"scale"
					}
				},
				{
					"sampler":36,
					"target":{
						"node":13,
						"path":"translation"
					}
				},
				{
					"sampler":37,
					"target":{
						"node":13,
						"path":"rotation"
					}
				},
				{
					"sampler":38,
					"target":{
						"node":13,
						"path":"scale"
					}
				},
				{
					"sampler":39,
					"target":{
						"node":12,
						"path":"translation"
					}
				},
				{
					"sampler":40,
					"target":{
						"node":12,
						"path":"rotation"
					}
				},
				{
					"sampler":41,
					"target":{
						"node":12,
						"path":"scale"
					}
				},
				{
					"sampler":42,
					"target":{
						"node":11,
						"path":"translation"
					}
				},
				{
					"sampler":43,
					"target":{
						"node":11,
						"path":"rotation"
					}
				},
				{
					"sampler":44,
					"target":{
						"node":11,
						"path":"scale"
					}
				}
			],
			"name":"wave",
			"samplers":[
				{
					"input":7,
					"interpolation":"STEP",
					"output":236
				},
				{
					"input":7,
					"interpolation":"STEP",
					"output":237
				},
				{
					"input":7,
					"interpolation":"STEP",
					"output":238
				},
				{
					"input":7,
					"interpolation":"STEP",
					"output":239
				},
				{
					"input":7,
					"interpolation":"STEP",
					"output":240
				},
				{
					"input":7,
					"interpolation":"STEP",
					"output":241
				},
				{
					"input":7,
					"interpolation":"STEP",
					"output":242
				},
				{
					"input":7,
					"interpolation":"STEP",
					"output":243
				},
				{
					"input":7,
					"interpolation":"STEP",
					"output":244
				},
				{
					"input":7,
					"interpolation":"STEP",
					"output":245
				},
				{
					"input":15,
					"interpolation":"LINEAR",
					"output":246
				},
				{
					"input":7,
					"interpolation":"STEP",
					"output":247
				},
				{
					"input":7,
					"interpolation":"STEP",
					"output":248
				},
				{
					"input":7,
					"interpolation":"STEP",
					"output":249
				},
				{
					"input":7,
					"interpolation":"STEP",
					"output":250
				},
				{
					"input":7,
					"interpolation":"STEP",
					"output":251
				},
				{
					"input":7,
					"interpolation":"STEP",
					"output":252
				},
				{
					"input":7,
					"interpolation":"STEP",
					"output":253
				},
				{
					"input":7,
					"interpolation":"STEP",
					"output":254
				},
				{
					"input":7,
					"interpolation":"STEP",
					"output":255
				},
				{
					"input":7,
					"interpolation":"STEP",
					"output":256
				},
				{
					"input":7,
					"interpolation":"STEP",
					"output":257
				},
				{
					"input":7,
					"interpolation":"STEP",
					"output":258
				},
				{
					"input":7,
					"interpolation":"STEP",
					"output":259
				},
				{
					"input":7,
					"interpolation":"STEP",
					"output":260
				},
				{
					"input":7,
					"interpolation":"STEP",
					"output":261
				},
				{
					"input":7,
					"interpolation":"STEP",
					"output":262
				},
				{
					"input":7,
					"interpolation":"STEP",
					"output":263
				},
				{
					"input":7,
					"interpolation":"STEP",
					"output":264
				},
				{
					"input":7,
					"interpolation":"STEP",
					"output":265
				},
				{
					"input":7,
					"interpolation":"STEP",
					"output":266
				},
				{
					"input":7,
					"interpolation":"STEP",
					"output":267
				},
				{
					"input":7,
					"interpolation":"STEP",
					"output":268
				},
				{
					"input":7,
					"interpolation":"STEP",
					"output":269
				},
				{
					"input":7,
					"interpolation":"STEP",
					"output":270
				},
				{
					"input":7,
					"interpolation":"STEP",
					"output":271
				},
				{
					"input":7,
					"interpolation":"STEP",
					"output":272
				},
				{
					"input":7,
					"interpolation":"STEP",
					"output":273
				},
				{
					"input":7,
					"interpolation":"STEP",
					"output":274
				},
				{
					"input":7,
					"interpolation":"STEP",
					"output":275
				},
				{
					"input":7,
					"interpolation":"STEP",
					"output":276
				},
				{
					"input":7,
					"interpolation":"STEP",
					"output":277
				},
				{
					"input":7,
					"interpolation":"STEP",
					"output":278
				},
				{
					"input":7,
					"interpolation":"STEP",
					"output":279
				},
				{
					"input":7,
					"interpolation":"STEP",
					"output":280
				}
			]
		}
	],
	"materials":[
		{
			"doubleSided":true,
			"name":"Material",
			"pbrMetallicRoughness":{
				"baseColorTexture":{
					"index":0
				},
				"metallicFactor":0,
				"roughnessFactor":0.5
			}
		}
	],
	"meshes":[
		{
			"name":"Plane",
			"primitives":[
				{
					"attributes":{
						"POSITION":0,
						"NORMAL":1,
						"TEXCOORD_0":2,
						"JOINTS_0":3,
						"WEIGHTS_0":4
					},
					"indices":5,
					"material":0
				}
			]
		}
	],
	"textures":[
		{
			"sampler":0,
			"source":0
		}
	],
	"images":[
		{
			"mimeType":"image/png",
			"name":"stormcaller",
			"uri":"stormcaller.png"
		}
	],
	"skins":[
		{
			"inverseBindMatrices":6,
			"joints":[
				14,
				7,
				2,
				1,
				0,
				5,
				4,
				3,
				6,
				10,
				9,
				8,
				13,
				12,
				11
			],
			"name":"Armature"
		}
	],
	"accessors":[
		{
			"bufferView":0,
			"componentType":5126,
			"count":9154,
			"max":[
				29.39704704284668,
				201.08154296875,
				99.83983612060547
			],
			"min":[
				-18.259502410888672,
				0.9777259826660156,
				-99.83983612060547
			],
			"type":"VEC3"
		},
		{
			"bufferView":1,
			"componentType":5126,
			"count":9154,
			"type":"VEC3"
		},
		{
			"bufferView":2,
			"componentType":5126,
			"count":9154,
			"type":"VEC2"
		},
		{
			"bufferView":3,
			"componentType":5121,
			"count":9154,
			"type":"VEC4"
		},
		{
			"bufferView":4,
			"componentType":5126,
			"count":9154,
			"type":"VEC4"
		},
		{
			"bufferView":5,
			"componentType":5123,
			"count":9162,
			"type":"SCALAR"
		},
		{
			"bufferView":6,
			"componentType":5126,
			"count":15,
			"type":"MAT4"
		},
		{
			"bufferView":7,
			"componentType":5126,
			"count":2,
			"max":[
				0.7916666666666666
			],
			"min":[
				0
			],
			"type":"SCALAR"
		},
		{
			"bufferView":8,
			"componentType":5126,
			"count":2,
			"type":"VEC3"
		},
		{
			"bufferView":9,
			"componentType":5126,
			"count":2,
			"type":"VEC4"
		},
		{
			"bufferView":10,
			"componentType":5126,
			"count":2,
			"type":"VEC3"
		},
		{
			"bufferView":11,
			"componentType":5126,
			"count":2,
			"type":"VEC3"
		},
		{
			"bufferView":12,
			"componentType":5126,
			"count":2,
			"type":"VEC4"
		},
		{
			"bufferView":13,
			"componentType":5126,
			"count":2,
			"type":"VEC3"
		},
		{
			"bufferView":14,
			"componentType":5126,
			"count":2,
			"type":"VEC3"
		},
		{
			"bufferView":15,
			"componentType":5126,
			"count":20,
			"max":[
				0.7916666666666666
			],
			"min":[
				0
			],
			"type":"SCALAR"
		},
		{
			"bufferView":16,
			"componentType":5126,
			"count":20,
			"type":"VEC4"
		},
		{
			"bufferView":17,
			"componentType":5126,
			"count":2,
			"type":"VEC3"
		},
		{
			"bufferView":18,
			"componentType":5126,
			"count":2,
			"type":"VEC3"
		},
		{
			"bufferView":19,
			"componentType":5126,
			"count":2,
			"type":"VEC4"
		},
		{
			"bufferView":20,
			"componentType":5126,
			"count":2,
			"type":"VEC3"
		},
		{
			"bufferView":21,
			"componentType":5126,
			"count":2,
			"type":"VEC3"
		},
		{
			"bufferView":22,
			"componentType":5126,
			"count":2,
			"type":"VEC4"
		},
		{
			"bufferView":23,
			"componentType":5126,
			"count":2,
			"type":"VEC3"
		},
		{
			"bufferView":24,
			"componentType":5126,
			"count":2,
			"type":"VEC3"
		},
		{
			"bufferView":25,
			"componentType":5126,
			"count":20,
			"type":"VEC4"
		},
		{
			"bufferView":26,
			"componentType":5126,
			"count":2,
			"type":"VEC3"
		},
		{
			"bufferView":27,
			"componentType":5126,
			"count":2,
			"type":"VEC3"
		},
		{
			"bufferView":28,
			"componentType":5126,
			"count":20,
			"type":"VEC4"
		},
		{
			"bufferView":29,
			"componentType":5126,
			"count":2,
			"type":"VEC3"
		},
		{
			"bufferView":30,
			"componentType":5126,
			"count":2,
			"type":"VEC3"
		},
		{
			"bufferView":31,
			"componentType":5126,
			"count":20,
			"type":"VEC4"
		},
		{
			"bufferView":32,
			"componentType":5126,
			"count":2,
			"type":"VEC3"
		},
		{
			"bufferView":33,
			"componentType":5126,
			"count":2,
			"type":"VEC3"
		},
		{
			"bufferView":34,
			"componentType":5126,
			"count":2,
			"type":"VEC4"
		},
		{
			"bufferView":35,
			"componentType":5126,
			"count":2,
			"type":"VEC3"
		},
		{
			"bufferView":36,
			"componentType":5126,
			"count":2,
			"type":"VEC3"
		},
		{
			"bufferView":37,
			"componentType":5126,
			"count":2,
			"type":"VEC4"
		},
		{
			"bufferView":38,
			"componentType":5126,
			"count":2,
			"type":"VEC3"
		},
		{
			"bufferView":39,
			"componentType":5126,
			"count":2,
			"type":"VEC3"
		},
		{
			"bufferView":40,
			"componentType":5126,
			"count":2,
			"type":"VEC4"
		},
		{
			"bufferView":41,
			"componentType":5126,
			"count":2,
			"type":"VEC3"
		},
		{
			"bufferView":42,
			"componentType":5126,
			"count":2,
			"type":"VEC3"
		},
		{
			"bufferView":43,
			"componentType":5126,
			"count":2,
			"type":"VEC4"
		},
		{
			"bufferView":44,
			"componentType":5126,
			"count":2,
			"type":"VEC3"
		},
		{
			"bufferView":45,
			"componentType":5126,
			"count":2,
			"type":"VEC3"
		},
		{
			"bufferView":46,
			"componentType":5126,
			"count":2,
			"type":"VEC4"
		},
		{
			"bufferView":47,
			"componentType":5126,
			"count":2,
			"type":"VEC3"
		},
		{
			"bufferView":48,
			"componentType":5126,
			"count":2,
			"type":"VEC3"
		},
		{
			"bufferView":49,
			"componentType":5126,
			"count":2,
			"type":"VEC4"
		},
		{
			"bufferView":50,
			"componentType":5126,
			"count":2,
			"type":"VEC3"
		},
		{
			"bufferView":51,
			"componentType":5126,
			"count":2,
			"type":"VEC3"
		},
		{
			"bufferView":52,
			"componentType":5126,
			"count":2,
			"type":"VEC4"
		},
		{
			"bufferView":53,
			"componentType":5126,
			"count":2,
			"type":"VEC3"
		},
		{
			"bufferView":54,
			"componentType":5126,
			"count":2,
			"max":[
				0.5416666666666666
			],
			"min":[
				0
			],
			"type":"SCALAR"
		},
		{
			"bufferView":55,
			"componentType":5126,
			"count":2,
			"type":"VEC3"
		},
		{
			"bufferView":56,
			"componentType":5126,
			"count":14,
			"max":[
				0.5416666666666666
			],
			"min":[
				0
			],
			"type":"SCALAR"
		},
		{
			"bufferView":57,
			"componentType":5126,
			"count":14,
			"type":"VEC4"
		},
		{
			"bufferView":58,
			"componentType":5126,
			"count":2,
			"type":"VEC3"
		},
		{
			"bufferView":59,
			"componentType":5126,
			"count":2,
			"type":"VEC3"
		},
		{
			"bufferView":60,
			"componentType":5126,
			"count":2,
			"type":"VEC4"
		},
		{
			"bufferView":61,
			"componentType":5126,
			"count":2,
			"type":"VEC3"
		},
		{
			"bufferView":62,
			"componentType":5126,
			"count":2,
			"type":"VEC3"
		},
		{
			"bufferView":63,
			"componentType":5126,
			"count":14,
			"type":"VEC4"
		},
		{
			"bufferView":64,
			"componentType":5126,
			"count":2,
			"type":"VEC3"
		},
		{
			"bufferView":65,
			"componentType":5126,
			"count":2,
			"type":"VEC3"
		},
		{
			"bufferView":66,
			"componentType":5126,
			"count":14,
			"type":"VEC4"
		},
		{
			"bufferView":67,
			"componentType":5126,
			"count":2,
			"type":"VEC3"
		},
		{
			"bufferView":68,
			"componentType":5126,
			"count":2,
			"type":"VEC3"
		},
		{
			"bufferView":69,
			"componentType":5126,
			"count":14,
			"type":"VEC4"
		},
		{
			"bufferView":70,
			"componentType":5126,
			"count":2,
			"type":"VEC3"
		},
		{
			"bufferView":71,
			"componentType":5126,
			"count":2,
			"type":"VEC3"
		},
		{
			"bufferView":72,
			"componentType":5126,
			"count":14,
			"type":"VEC4"
		},
		{
			"bufferView":73,
			"componentType":5126,
			"count":2,
			"type":"VEC3"
		},
		{
			"bufferView":74,
			"componentType":5126,
			"count":2,
			"type":"VEC3"
		},
		{
			"bufferView":75,
			"componentType":5126,
			"count":14,
			"type":"VEC4"
		},
		{
			"bufferView":76,
			"componentType":5126,
			"count":2,
			"type":"VEC3"
		},
		{
			"bufferView":77,
			"componentType":5126,
			"count":2,
			"type":"VEC3"
		},
		{
			"bufferView":78,
			"componentType":5126,
			"count":2,
			"type":"VEC4"
		},
		{
			"bufferView":79,
			"componentType":5126,
			"count":2,
			"type":"VEC3"
		},
		{
			"bufferView":80,
			"componentType":5126,
			"count":2,
			"type":"VEC3"
		},
		{
			"bufferView":81,
			"componentType":5126,
			"count":2,
			"type":"VEC4"
		},
		{
			"bufferView":82,
			"componentType":5126,
			"count":2,
			"type":"VEC3"
		},
		{
			"bufferView":83,
			"componentType":5126,
			"count":2,
			"type":"VEC3"
		},
		{
			"bufferView":84,
			"componentType":5126,
			"count":2,
			"type":"VEC4"
		},
		{
			"bufferView":85,
			"componentType":5126,
			"count":2,
			"type":"VEC3"
		},
		{
			"bufferView":86,
			"componentType":5126,
			"count":2,
			"type":"VEC3"
		},
		{
			"bufferView":87,
			"componentType":5126,
			"count":2,
			"type":"VEC4"
		},
		{
			"bufferView":88,
			"componentType":5126,
			"count":2,
			"type":"VEC3"
		},
		{
			"bufferView":89,
			"componentType":5126,
			"count":2,
			"type":"VEC3"
		},
		{
			"bufferView":90,
			"componentType":5126,
			"count":2,
			"type":"VEC4"
		},
		{
			"bufferView":91,
			"componentType":5126,
			"count":2,
			"type":"VEC3"
		},
		{
			"bufferView":92,
			"componentType":5126,
			"count":2,
			"type":"VEC3"
		},
		{
			"bufferView":93,
			"componentType":5126,
			"count":2,
			"type":"VEC4"
		},
		{
			"bufferView":94,
			"componentType":5126,
			"count":2,
			"type":"VEC3"
		},
		{
			"bufferView":95,
			"componentType":5126,
			"count":2,
			"type":"VEC3"
		},
		{
			"bufferView":96,
			"componentType":5126,
			"count":2,
			"type":"VEC4"
		},
		{
			"bufferView":97,
			"componentType":5126,
			"count":2,
			"type":"VEC3"
		},
		{
			"bufferView":98,
			"componentType":5126,
			"count":2,
			"type":"VEC3"
		},
		{
			"bufferView":99,
			"componentType":5126,
			"count":2,
			"type":"VEC4"
		},
		{
			"bufferView":100,
			"componentType":5126,
			"count":2,
			"type":"VEC3"
		},
		{
			"bufferView":101,
			"componentType":5126,
			"count":2,
			"type":"VEC3"
		},
		{
			"bufferView":102,
			"componentType":5126,
			"count":2,
			"type":"VEC4"
		},
		{
			"bufferView":103,
			"componentType":5126,
			"count":2,
			"type":"VEC3"
		},
		{
			"bufferView":104,
			"componentType":5126,
			"count":2,
			"type":"VEC3"
		},
		{
			"bufferView":105,
			"componentType":5126,
			"count":2,
			"type":"VEC4"
		},
		{
			"bufferView":106,
			"componentType":5126,
			"count":2,
			"type":"VEC3"
		},
		{
			"bufferView":107,
			"componentType":5126,
			"count":2,
			"type":"VEC3"
		},
		{
			"bufferView":108,
			"componentType":5126,
			"count":20,
			"type":"VEC4"
		},
		{
			"bufferView":109,
			"componentType":5126,
			"count":2,
			"type":"VEC3"
		},
		{
			"bufferView":110,
			"componentType":5126,
			"count":2,
			"type":"VEC3"
		},
		{
			"bufferView":111,
			"componentType":5126,
			"count":2,
			"type":"VEC4"
		},
		{
			"bufferView":112,
			"componentType":5126,
			"count":2,
			"type":"VEC3"
		},
		{
			"bufferView":113,
			"componentType":5126,
			"count":2,
			"type":"VEC3"
		},
		{
			"bufferView":114,
			"componentType":5126,
			"count":2,
			"type":"VEC4"
		},
		{
			"bufferView":115,
			"componentType":5126,
			"count":2,
			"type":"VEC3"
		},
		{
			"bufferView":116,
			"componentType":5126,
			"count":2,
			"type":"VEC3"
		},
		{
			"bufferView":117,
			"componentType":5126,
			"count":20,
			"type":"VEC4"
		},
		{
			"bufferView":118,
			"componentType":5126,
			"count":2,
			"type":"VEC3"
		},
		{
			"bufferView":119,
			"componentType":5126,
			"count":2,
			"type":"VEC3"
		},
		{
			"bufferView":120,
			"componentType":5126,
			"count":2,
			"type":"VEC4"
		},
		{
			"bufferView":121,
			"componentType":5126,
			"count":2,
			"type":"VEC3"
		},
		{
			"bufferView":122,
			"componentType":5126,
			"count":2,
			"type":"VEC3"
		},
		{
			"bufferView":123,
			"componentType":5126,
			"count":2,
			"type":"VEC4"
		},
		{
			"bufferView":124,
			"componentType":5126,
			"count":2,
			"type":"VEC3"
		},
		{
			"bufferView":125,
			"componentType":5126,
			"count":2,
			"type":"VEC3"
		},
		{
			"bufferView":126,
			"componentType":5126,
			"count":2,
			"type":"VEC4"
		},
		{
			"bufferView":127,
			"componentType":5126,
			"count":2,
			"type":"VEC3"
		},
		{
			"bufferView":128,
			"componentType":5126,
			"count":2,
			"type":"VEC3"
		},
		{
			"bufferView":129,
			"componentType":5126,
			"count":2,
			"type":"VEC4"
		},
		{
			"bufferView":130,
			"componentType":5126,
			"count":2,
			"type":"VEC3"
		},
		{
			"bufferView":131,
			"componentType":5126,
			"count":2,
			"type":"VEC3"
		},
		{
			"bufferView":132,
			"componentType":5126,
			"count":2,
			"type":"VEC4"
		},
		{
			"bufferView":133,
			"componentType":5126,
			"count":2,
			"type":"VEC3"
		},
		{
			"bufferView":134,
			"componentType":5126,
			"count":2,
			"type":"VEC3"
		},
		{
			"bufferView":135,
			"componentType":5126,
			"count":2,
			"type":"VEC4"
		},
		{
			"bufferView":136,
			"componentType":5126,
			"count":2,
			"type":"VEC3"
		},
		{
			"bufferView":137,
			"componentType":5126,
			"count":2,
			"type":"VEC3"
		},
		{
			"bufferView":138,
			"componentType":5126,
			"count":2,
			"type":"VEC4"
		},
		{
			"bufferView":139,
			"componentType":5126,
			"count":2,
			"type":"VEC3"
		},
		{
			"bufferView":140,
			"componentType":5126,
			"count":2,
			"type":"VEC3"
		},
		{
			"bufferView":141,
			"componentType":5126,
			"count":2,
			"type":"VEC4"
		},
		{
			"bufferView":142,
			"componentType":5126,
			"count":2,
			"type":"VEC3"
		},
		{
			"bufferView":143,
			"componentType":5126,
			"count":2,
			"type":"VEC3"
		},
		{
			"bufferView":144,
			"componentType":5126,
			"count":2,
			"type":"VEC4"
		},
		{
			"bufferView":145,
			"componentType":5126,
			"count":2,
			"type":"VEC3"
		},
		{
			"bufferView":146,
			"componentType":5126,
			"count":2,
			"type":"VEC3"
		},
		{
			"bufferView":147,
			"componentType":5126,
			"count":2,
			"type":"VEC4"
		},
		{
			"bufferView":148,
			"componentType":5126,
			"count":2,
			"type":"VEC3"
		},
		{
			"bufferView":149,
			"componentType":5126,
			"count":2,
			"type":"VEC3"
		},
		{
			"bufferView":150,
			"componentType":5126,
			"count":2,
			"type":"VEC4"
		},
		{
			"bufferView":151,
			"componentType":5126,
			"count":2,
			"type":"VEC3"
		},
		{
			"bufferView":152,
			"componentType":5126,
			"count":2,
			"type":"VEC3"
		},
		{
			"bufferView":153,
			"componentType":5126,
			"count":2,
			"type":"VEC4"
		},
		{
			"bufferView":154,
			"componentType":5126,
			"count":2,
			"type":"VEC3"
		},
		{
			"bufferView":155,
			"componentType":5126,
			"count":2,
			"type":"VEC3"
		},
		{
			"bufferView":156,
			"componentType":5126,
			"count":20,
			"type":"VEC4"
		},
		{
			"bufferView":157,
			"componentType":5126,
			"count":2,
			"type":"VEC3"
		},
		{
			"bufferView":158,
			"componentType":5126,
			"count":2,
			"type":"VEC3"
		},
		{
			"bufferView":159,
			"componentType":5126,
			"count":2,
			"type":"VEC4"
		},
		{
			"bufferView":160,
			"componentType":5126,
			"count":2,
			"type":"VEC3"
		},
		{
			"bufferView":161,
			"componentType":5126,
			"count":2,
			"type":"VEC3"
		},
		{
			"bufferView":162,
			"componentType":5126,
			"count":2,
			"type":"VEC4"
		},
		{
			"bufferView":163,
			"componentType":5126,
			"count":2,
			"type":"VEC3"
		},
		{
			"bufferView":164,
			"componentType":5126,
			"count":2,
			"type":"VEC3"
		},
		{
			"bufferView":165,
			"componentType":5126,
			"count":20,
			"type":"VEC4"
		},
		{
			"bufferView":166,
			"componentType":5126,
			"count":2,
			"type":"VEC3"
		},
		{
			"bufferView":167,
			"componentType":5126,
			"count":2,
			"type":"VEC3"
		},
		{
			"bufferView":168,
			"componentType":5126,
			"count":2,
			"type":"VEC4"
		},
		{
			"bufferView":169,
			"componentType":5126,
			"count":2,
			"type":"VEC3"
		},
		{
			"bufferView":170,
			"componentType":5126,
			"count":2,
			"type":"VEC3"
		},
		{
			"bufferView":171,
			"componentType":5126,
			"count":2,
			"type":"VEC4"
		},
		{
			"bufferView":172,
			"componentType":5126,
			"count":2,
			"type":"VEC3"
		},
		{
			"bufferView":173,
			"componentType":5126,
			"count":2,
			"type":"VEC3"
		},
		{
			"bufferView":174,
			"componentType":5126,
			"count":20,
			"type":"VEC4"
		},
		{
			"bufferView":175,
			"componentType":5126,
			"count":2,
			"type":"VEC3"
		},
		{
			"bufferView":176,
			"componentType":5126,
			"count":2,
			"type":"VEC3"
		},
		{
			"bufferView":177,
			"componentType":5126,
			"count":20,
			"type":"VEC4"
		},
		{
			"bufferView":178,
			"componentType":5126,
			"count":2,
			"type":"VEC3"
		},
		{
			"bufferView":179,
			"componentType":5126,
			"count":2,
			"type":"VEC3"
		},
		{
			"bufferView":180,
			"componentType":5126,
			"count":2,
			"type":"VEC4"
		},
		{
			"bufferView":181,
			"componentType":5126,
			"count":2,
			"type":"VEC3"
		},
		{
			"bufferView":182,
			"componentType":5126,
			"count":2,
			"type":"VEC3"
		},
		{
			"bufferView":183,
			"componentType":5126,
			"count":20,
			"type":"VEC4"
		},
		{
			"bufferView":184,
			"componentType":5126,
			"count":2,
			"type":"VEC3"
		},
		{
			"bufferView":185,
			"componentType":5126,
			"count":2,
			"type":"VEC3"
		},
		{
			"bufferView":186,
			"componentType":5126,
			"count":20,
			"type":"VEC4"
		},
		{
			"bufferView":187,
			"componentType":5126,
			"count":2,
			"type":"VEC3"
		},
		{
			"bufferView":188,
			"componentType":5126,
			"count":2,
			"type":"VEC3"
		},
		{
			"bufferView":189,
			"componentType":5126,
			"count":2,
			"type":"VEC4"
		},
		{
			"bufferView":190,
			"componentType":5126,
			"count":2,
			"type":"VEC3"
		},
		{
			"bufferView":191,
			"componentType":5126,
			"count":2,
			"type":"VEC3"
		},
		{
			"bufferView":192,
			"componentType":5126,
			"count":2,
			"type":"VEC4"
		},
		{
			"bufferView":193,
			"componentType":5126,
			"count":2,
			"type":"VEC3"
		},
		{
			"bufferView":194,
			"componentType":5126,
			"count":2,
			"type":"VEC3"
		},
		{
			"bufferView":195,
			"componentType":5126,
			"count":2,
			"type":"VEC4"
		},
		{
			"bufferView":196,
			"componentType":5126,
			"count":2,
			"type":"VEC3"
		},
		{
			"bufferView":197,
			"componentType":5126,
			"count":2,
			"type":"VEC3"
		},
		{
			"bufferView":198,
			"componentType":5126,
			"count":20,
			"type":"VEC4"
		},
		{
			"bufferView":199,
			"componentType":5126,
			"count":2,
			"type":"VEC3"
		},
		{
			"bufferView":200,
			"componentType":5126,
			"count":2,
			"type":"VEC3"
		},
		{
			"bufferView":201,
			"componentType":5126,
			"count":20,
			"type":"VEC4"
		},
		{
			"bufferView":202,
			"componentType":5126,
			"count":2,
			"type":"VEC3"
		},
		{
			"bufferView":203,
			"componentType":5126,
			"count":2,
			"type":"VEC3"
		},
		{
			"bufferView":204,
			"componentType":5126,
			"count":2,
			"type":"VEC4"
		},
		{
			"bufferView":205,
			"componentType":5126,
			"count":2,
			"type":"VEC3"
		},
		{
			"bufferView":206,
			"componentType":5126,
			"count":2,
			"type":"VEC3"
		},
		{
			"bufferView":207,
			"componentType":5126,
			"count":20,
			"type":"VEC4"
		},
		{
			"bufferView":208,
			"componentType":5126,
			"count":2,
			"type":"VEC3"
		},
		{
			"bufferView":209,
			"componentType":5126,
			"count":2,
			"type":"VEC3"
		},
		{
			"bufferView":210,
			"componentType":5126,
			"count":20,
			"type":"VEC4"
		},
		{
			"bufferView":211,
			"componentType":5126,
			"count":2,
			"type":"VEC3"
		},
		{
			"bufferView":212,
			"componentType":5126,
			"count":2,
			"type":"VEC3"
		},
		{
			"bufferView":213,
			"componentType":5126,
			"count":2,
			"type":"VEC4"
		},
		{
			"bufferView":214,
			"componentType":5126,
			"count":2,
			"type":"VEC3"
		},
		{
			"bufferView":215,
			"componentType":5126,
			"count":2,
			"type":"VEC3"
		},
		{
			"bufferView":216,
			"componentType":5126,
			"count":2,
			"type":"VEC4"
		},
		{
			"bufferView":217,
			"componentType":5126,
			"count":2,
			"type":"VEC3"
		},
		{
			"bufferView":218,
			"componentType":5126,
			"count":2,
			"type":"VEC3"
		},
		{
			"bufferView":219,
			"componentType":5126,
			"count":2,
			"type":"VEC4"
		},
		{
			"bufferView":220,
			"componentType":5126,
			"count":2,
			"type":"VEC3"
		},
		{
			"bufferView":221,
			"componentType":5126,
			"count":2,
			"type":"VEC3"
		},
		{
			"bufferView":222,
			"componentType":5126,
			"count":2,
			"type":"VEC4"
		},
		{
			"bufferView":223,
			"componentType":5126,
			"count":2,
			"type":"VEC3"
		},
		{
			"bufferView":224,
			"componentType":5126,
			"count":2,
			"type":"VEC3"
		},
		{
			"bufferView":225,
			"componentType":5126,
			"count":2,
			"type":"VEC4"
		},
		{
			"bufferView":226,
			"componentType":5126,
			"count":2,
			"type":"VEC3"
		},
		{
			"bufferView":227,
			"componentType":5126,
			"count":2,
			"type":"VEC3"
		},
		{
			"bufferView":228,
			"componentType":5126,
			"count":2,
			"type":"VEC4"
		},
		{
			"bufferView":229,
			"componentType":5126,
			"count":2,
			"type":"VEC3"
		},
		{
			"bufferView":230,
			"componentType":5126,
			"count":2,
			"type":"VEC3"
		},
		{
			"bufferView":231,
			"componentType":5126,
			"count":2,
			"type":"VEC4"
		},
		{
			"bufferView":232,
			"componentType":5126,
			"count":2,
			"type":"VEC3"
		},
		{
			"bufferView":233,
			"componentType":5126,
			"count":2,
			"type":"VEC3"
		},
		{
			"bufferView":234,
			"componentType":5126,
			"count":2,
			"type":"VEC4"
		},
		{
			"bufferView":235,
			"componentType":5126,
			"count":2,
			"type":"VEC3"
		},
		{
			"bufferView":236,
			"componentType":5126,
			"count":2,
			"type":"VEC3"
		},
		{
			"bufferView":237,
			"componentType":5126,
			"count":2,
			"type":"VEC4"
		},
		{
			"bufferView":238,
			"componentType":5126,
			"count":2,
			"type":"VEC3"
		},
		{
			"bufferView":239,
			"componentType":5126,
			"count":2,
			"type":"VEC3"
		},
		{
			"bufferView":240,
			"componentType":5126,
			"count":2,
			"type":"VEC4"
		},
		{
			"bufferView":241,
			"componentType":5126,
			"count":2,
			"type":"VEC3"
		},
		{
			"bufferView":242,
			"componentType":5126,
			"count":2,
			"type":"VEC3"
		},
		{
			"bufferView":243,
			"componentType":5126,
			"count":2,
			"type":"VEC4"
		},
		{
			"bufferView":244,
			"componentType":5126,
			"count":2,
			"type":"VEC3"
		},
		{
			"bufferView":245,
			"componentType":5126,
			"count":2,
			"type":"VEC3"
		},
		{
			"bufferView":246,
			"componentType":5126,
			"count":20,
			"type":"VEC4"
		},
		{
			"bufferView":247,
			"componentType":5126,
			"count":2,
			"type":"VEC3"
		},
		{
			"bufferView":248,
			"componentType":5126,
			"count":2,
			"type":"VEC3"
		},
		{
			"bufferView":249,
			"componentType":5126,
			"count":2,
			"type":"VEC4"
		},
		{
			"bufferView":250,
			"componentType":5126,
			"count":2,
			"type":"VEC3"
		},
		{
			"bufferView":251,
			"componentType":5126,
			"count":2,
			"type":"VEC3"
		},
		{
			"bufferView":252,
			"componentType":5126,
			"count":2,
			"type":"VEC4"
		},
		{
			"bufferView":253,
			"componentType":5126,
			"count":2,
			"type":"VEC3"
		},
		{
			"bufferView":254,
			"componentType":5126,
			"count":2,
			"type":"VEC3"
		},
		{
			"bufferView":255,
			"componentType":5126,
			"count":2,
			"type":"VEC4"
		},
		{
			"bufferView":256,
			"componentType":5126,
			"count":2,
			"type":"VEC3"
		},
		{
			"bufferView":257,
			"componentType":5126,
			"count":2,
			"type":"VEC3"
		},
		{
			"bufferView":258,
			"componentType":5126,
			"count":2,
			"type":"VEC4"
		},
		{
			"bufferView":259,
			"componentType":5126,
			"count":2,
			"type":"VEC3"
		},
		{
			"bufferView":260,
			"componentType":5126,
			"count":2,
			"type":"VEC3"
		},
		{
			"bufferView":261,
			"componentType":5126,
			"count":2,
			"type":"VEC4"
		},
		{
			"bufferView":262,
			"componentType":5126,
			"count":2,
			"type":"VEC3"
		},
		{
			"bufferView":263,
			"componentType":5126,
			"count":2,
			"type":"VEC3"
		},
		{
			"bufferView":264,
			"componentType":5126,
			"count":2,
			"type":"VEC4"
		},
		{
			"bufferView":265,
			"componentType":5126,
			"count":2,
			"type":"VEC3"
		},
		{
			"bufferView":266,
			"componentType":5126,
			"count":2,
			"type":"VEC3"
		},
		{
			"bufferView":267,
			"componentType":5126,
			"count":2,
			"type":"VEC4"
		},
		{
			"bufferView":268,
			"componentType":5126,
			"count":2,
			"type":"VEC3"
		},
		{
			"bufferView":269,
			"componentType":5126,
			"count":2,
			"type":"VEC3"
		},
		{
			"bufferView":270,
			"componentType":5126,
			"count":2,
			"type":"VEC4"
		},
		{
			"bufferView":271,
			"componentType":5126,
			"count":2,
			"type":"VEC3"
		},
		{
			"bufferView":272,
			"componentType":5126,
			"count":2,
			"type":"VEC3"
		},
		{
			"bufferView":273,
			"componentType":5126,
			"count":2,
			"type":"VEC4"
		},
		{
			"bufferView":274,
			"componentType":5126,
			"count":2,
			"type":"VEC3"
		},
		{
			"bufferView":275,
			"componentType":5126,
			"count":2,
			"type":"VEC3"
		},
		{
			"bufferView":276,
			"componentType":5126,
			"count":2,
			"type":"VEC4"
		},
		{
			"bufferView":277,
			"componentType":5126,
			"count":2,
			"type":"VEC3"
		},
		{
			"bufferView":278,
			"componentType":5126,
			"count":2,
			"type":"VEC3"
		},
		{
			"bufferView":279,
			"componentType":5126,
			"count":2,
			"type":"VEC4"
		},
		{
			"bufferView":280,
			"componentType":5126,
			"count":2,
			"type":"VEC3"
		}
	],
	"bufferViews":[
		{
			"buffer":0,
			"byteLength":109848,
			"byteOffset":0,
			"target":34962
		},
		{
			"buffer":0,
			"byteLength":109848,
			"byteOffset":109848,
			"target":34962
		},
		{
			"buffer":0,
			"byteLength":73232,
			"byteOffset":219696,
			"target":34962
		},
		{
			"buffer":0,
			"byteLength":36616,
			"byteOffset":292928,
			"target":34962
		},
		{
			"buffer":0,
			"byteLength":146464,
			"byteOffset":329544,
			"target":34962
		},
		{
			"buffer":0,
			"byteLength":18324,
			"byteOffset":476008,
			"target":34963
		},
		{
			"buffer":0,
			"byteLength":960,
			"byteOffset":494332
		},
		{
			"buffer":0,
			"byteLength":8,
			"byteOffset":495292
		},
		{
			"buffer":0,
			"byteLength":24,
			"byteOffset":495300
		},
		{
			"buffer":0,
			"byteLength":32,
			"byteOffset":495324
		},
		{
			"buffer":0,
			"byteLength":24,
			"byteOffset":495356
		},
		{
			"buffer":0,
			"byteLength":24,
			"byteOffset":495380
		},
		{
			"buffer":0,
			"byteLength":32,
			"byteOffset":495404
		},
		{
			"buffer":0,
			"byteLength":24,
			"byteOffset":495436
		},
		{
			"buffer":0,
			"byteLength":24,
			"byteOffset":495460
		},
		{
			"buffer":0,
			"byteLength":80,
			"byteOffset":495484
		},
		{
			"buffer":0,
			"byteLength":320,
			"byteOffset":495564
		},
		{
			"buffer":0,
			"byteLength":24,
			"byteOffset":495884
		},
		{
			"buffer":0,
			"byteLength":24,
			"byteOffset":495908
		},
		{
			"buffer":0,
			"byteLength":32,
			"byteOffset":495932
		},
		{
			"buffer":0,
			"byteLength":24,
			"byteOffset":495964
		},
		{
			"buffer":0,
			"byteLength":24,
			"byteOffset":495988
		},
		{
			"buffer":0,
			"byteLength":32,
			"byteOffset":496012
		},
		{
			"buffer":0,
			"byteLength":24,
			"byteOffset":496044
		},
		{
			"buffer":0,
			"byteLength":24,
			"byteOffset":496068
		},
		{
			"buffer":0,
			"byteLength":320,
			"byteOffset":496092
		},
		{
			"buffer":0,
			"byteLength":24,
			"byteOffset":496412
		},
		{
			"buffer":0,
			"byteLength":24,
			"byteOffset":496436
		},
		{
			"buffer":0,
			"byteLength":320,
			"byteOffset":496460
		},
		{
			"buffer":0,
			"byteLength":24,
			"byteOffset":496780
		},
		{
			"buffer":0,
			"byteLength":24,
			"byteOffset":496804
		},
		{
			"buffer":0,
			"byteLength":320,
			"byteOffset":496828
		},
		{
			"buffer":0,
			"byteLength":24,
			"byteOffset":497148
		},
		{
			"buffer":0,
			"byteLength":24,
			"byteOffset":497172
		},
		{
			"buffer":0,
			"byteLength":32,
			"byteOffset":497196
		},
		{
			"buffer":0,
			"byteLength":24,
			"byteOffset":497228
		},
		{
			"buffer":0,
			"byteLength":24,
			"byteOffset":497252
		},
		{
			"buffer":0,
			"byteLength":32,
			"byteOffset":497276
		},
		{
			"buffer":0,
			"byteLength":24,
			"byteOffset":497308
		},
		{
			"buffer":0,
			"byteLength":24,
			"byteOffset":497332
		},
		{
			"buffer":0,
			"byteLength":32,
			"byteOffset":497356
		},
		{
			"buffer":0,
			"byteLength":24,
			"byteOffset":497388
		},
		{
			"buffer":0,
			"byteLength":24,
			"byteOffset":497412
		},
		{
			"buffer":0,
			"byteLength":32,
			"byteOffset":497436
		},
		{
			"buffer":0,
			"byteLength":24,
			"byteOffset":497468
		},
		{
			"buffer":0,
			"byteLength":24,
			"byteOffset":497492
		},
		{
			"buffer":0,
			"byteLength":32,
			"byteOffset":497516
		},
		{
			"buffer":0,
			"byteLength":24,
			"byteOffset":497548
		},
		{
			"buffer":0,
			"byteLength":24,
			"byteOffset":497572
		},
		{
			"buffer":0,
			"byteLength":32,
			"byteOffset":497596
		},
		{
			"buffer":0,
			"byteLength":24,
			"byteOffset":497628
		},
		{
			"buffer":0,
			"byteLength":24,
			"byteOffset":497652
		},
		{
			"buffer":0,
			"byteLength":32,
			"byteOffset":497676
		},
		{
			"buffer":0,
			"byteLength":24,
			"byteOffset":497708
		},
		{
			"buffer":0,
			"byteLength":8,
			"byteOffset":497732
		},
		{
			"buffer":0,
			"byteLength":24,
			"byteOffset":497740
		},
		{
			"buffer":0,
			"byteLength":56,
			"byteOffset":497764
		},
		{
			"buffer":0,
			"byteLength":224,
			"byteOffset":497820
		},
		{
			"buffer":0,
			"byteLength":24,
			"byteOffset":498044
		},
		{
			"buffer":0,
			"byteLength":24,
			"byteOffset":498068
		},
		{
			"buffer":0,
			"byteLength":32,
			"byteOffset":498092
		},
		{
			"buffer":0,
			"byteLength":24,
			"byteOffset":498124
		},
		{
			"buffer":0,
			"byteLength":24,
			"byteOffset":498148
		},
		{
			"buffer":0,
			"byteLength":224,
			"byteOffset":498172
		},
		{
			"buffer":0,
			"byteLength":24,
			"byteOffset":498396
		},
		{
			"buffer":0,
			"byteLength":24,
			"byteOffset":498420
		},
		{
			"buffer":0,
			"byteLength":224,
			"byteOffset":498444
		},
		{
			"buffer":0,
			"byteLength":24,
			"byteOffset":498668
		},
		{
			"buffer":0,
			"byteLength":24,
			"byteOffset":498692
		},
		{
			"buffer":0,
			"byteLength":224,
			"byteOffset":498716
		},
		{
			"buffer":0,
			"byteLength":24,
			"byteOffset":498940
		},
		{
			"buffer":0,
			"byteLength":24,
			"byteOffset":498964
		},
		{
			"buffer":0,
			"byteLength":224,
			"byteOffset":498988
		},
		{
			"buffer":0,
			"byteLength":24,
			"byteOffset":499212
		},
		{
			"buffer":0,
			"byteLength":24,
			"byteOffset":499236
		},
		{
			"buffer":0,
			"byteLength":224,
			"byteOffset":499260
		},
		{
			"buffer":0,
			"byteLength":24,
			"byteOffset":499484
		},
		{
			"buffer":0,
			"byteLength":24,
			"byteOffset":499508
		},
		{
			"buffer":0,
			"byteLength":32,
			"byteOffset":499532
		},
		{
			"buffer":0,
			"byteLength":24,
			"byteOffset":499564
		},
		{
			"buffer":0,
			"byteLength":24,
			"byteOffset":499588
		},
		{
			"buffer":0,
			"byteLength":32,
			"byteOffset":499612
		},
		{
			"buffer":0,
			"byteLength":24,
			"byteOffset":499644
		},
		{
			"buffer":0,
			"byteLength":24,
			"byteOffset":499668
		},
		{
			"buffer":0,
			"byteLength":32,
			"byteOffset":499692
		},
		{
			"buffer":0,
			"byteLength":24,
			"byteOffset":499724
		},
		{
			"buffer":0,
			"byteLength":24,
			"byteOffset":499748
		},
		{
			"buffer":0,
			"byteLength":32,
			"byteOffset":499772
		},
		{
			"buffer":0,
			"byteLength":24,
			"byteOffset":499804
		},
		{
			"buffer":0,
			"byteLength":24,
			"byteOffset":499828
		},
		{
			"buffer":0,
			"byteLength":32,
			"byteOffset":499852
		},
		{
			"buffer":0,
			"byteLength":24,
			"byteOffset":499884
		},
		{
			"buffer":0,
			"byteLength":24,
			"byteOffset":499908
		},
		{
			"buffer":0,
			"byteLength":32,
			"byteOffset":499932
		},
		{
			"buffer":0,
			"byteLength":24,
			"byteOffset":499964
		},
		{
			"buffer":0,
			"byteLength":24,
			"byteOffset":499988
		},
		{
			"buffer":0,
			"byteLength":32,
			"byteOffset":500012
		},
		{
			"buffer":0,
			"byteLength":24,
			"byteOffset":500044
		},
		{
			"buffer":0,
			"byteLength":24,
			"byteOffset":500068
		},
		{
			"buffer":0,
			"byteLength":32,
			"byteOffset":500092
		},
		{
			"buffer":0,
			"byteLength":24,
			"byteOffset":500124
		},
		{
			"buffer":0,
			"byteLength":24,
			"byteOffset":500148
		},
		{
			"buffer":0,
			"byteLength":32,
			"byteOffset":500172
		},
		{
			"buffer":0,
			"byteLength":24,
			"byteOffset":500204
		},
		{
			"buffer":0,
			"byteLength":24,
			"byteOffset":500228
		},
		{
			"buffer":0,
			"byteLength":32,
			"byteOffset":500252
		},
		{
			"buffer":0,
			"byteLength":24,
			"byteOffset":500284
		},
		{
			"buffer":0,
			"byteLength":24,
			"byteOffset":500308
		},
		{
			"buffer":0,
			"byteLength":320,
			"byteOffset":500332
		},
		{
			"buffer":0,
			"byteLength":24,
			"byteOffset":500652
		},
		{
			"buffer":0,
			"byteLength":24,
			"byteOffset":500676
		},
		{
			"buffer":0,
			"byteLength":32,
			"byteOffset":500700
		},
		{
			"buffer":0,
			"byteLength":24,
			"byteOffset":500732
		},
		{
			"buffer":0,
			"byteLength":24,
			"byteOffset":500756
		},
		{
			"buffer":0,
			"byteLength":32,
			"byteOffset":500780
		},
		{
			"buffer":0,
			"byteLength":24,
			"byteOffset":500812
		},
		{
			"buffer":0,
			"byteLength":24,
			"byteOffset":500836
		},
		{
			"buffer":0,
			"byteLength":320,
			"byteOffset":500860
		},
		{
			"buffer":0,
			"byteLength":24,
			"byteOffset":501180
		},
		{
			"buffer":0,
			"byteLength":24,
			"byteOffset":501204
		},
		{
			"buffer":0,
			"byteLength":32,
			"byteOffset":501228
		},
		{
			"buffer":0,
			"byteLength":24,
			"byteOffset":501260
		},
		{
			"buffer":0,
			"byteLength":24,
			"byteOffset":501284
		},
		{
			"buffer":0,
			"byteLength":32,
			"byteOffset":501308
		},
		{
			"buffer":0,
			"byteLength":24,
			"byteOffset":501340
		},
		{
			"buffer":0,
			"byteLength":24,
			"byteOffset":501364
		},
		{
			"buffer":0,
			"byteLength":32,
			"byteOffset":501388
		},
		{
			"buffer":0,
			"byteLength":24,
			"byteOffset":501420
		},
		{
			"buffer":0,
			"byteLength":24,
			"byteOffset":501444
		},
		{
			"buffer":0,
			"byteLength":32,
			"byteOffset":501468
		},
		{
			"buffer":0,
			"byteLength":24,
			"byteOffset":501500
		},
		{
			"buffer":0,
			"byteLength":24,
			"byteOffset":501524
		},
		{
			"buffer":0,
			"byteLength":32,
			"byteOffset":501548
		},
		{
			"buffer":0,
			"byteLength":24,
			"byteOffset":501580
		},
		{
			"buffer":0,
			"byteLength":24,
			"byteOffset":501604
		},
		{
			"buffer":0,
			"byteLength":32,
			"byteOffset":501628
		},
		{
			"buffer":0,
			"byteLength":24,
			"byteOffset":501660
		},
		{
			"buffer":0,
			"byteLength":24,
			"byteOffset":501684
		},
		{
			"buffer":0,
			"byteLength":32,
			"byteOffset":501708
		},
		{
			"buffer":0,
			"byteLength":24,
			"byteOffset":501740
		},
		{
			"buffer":0,
			"byteLength":24,
			"byteOffset":501764
		},
		{
			"buffer":0,
			"byteLength":32,
			"byteOffset":501788
		},
		{
			"buffer":0,
			"byteLength":24,
			"byteOffset":501820
		},
		{
			"buffer":0,
			"byteLength":24,
			"byteOffset":501844
		},
		{
			"buffer":0,
			"byteLength":32,
			"byteOffset":501868
		},
		{
			"buffer":0,
			"byteLength":24,
			"byteOffset":501900
		},
		{
			"buffer":0,
			"byteLength":24,
			"byteOffset":501924
		},
		{
			"buffer":0,
			"byteLength":32,
			"byteOffset":501948
		},
		{
			"buffer":0,
			"byteLength":24,
			"byteOffset":501980
		},
		{
			"buffer":0,
			"byteLength":24,
			"byteOffset":502004
		},
		{
			"buffer":0,
			"byteLength":32,
			"byteOffset":502028
		},
		{
			"buffer":0,
			"byteLength":24,
			"byteOffset":502060
		},
		{
			"buffer":0,
			"byteLength":24,
			"byteOffset":502084
		},
		{
			"buffer":0,
			"byteLength":32,
			"byteOffset":502108
		},
		{
			"buffer":0,
			"byteLength":24,
			"byteOffset":502140
		},
		{
			"buffer":0,
			"byteLength":24,
			"byteOffset":502164
		},
		{
			"buffer":0,
			"byteLength":320,
			"byteOffset":502188
		},
		{
			"buffer":0,
			"byteLength":24,
			"byteOffset":502508
		},
		{
			"buffer":0,
			"byteLength":24,
			"byteOffset":502532
		},
		{
			"buffer":0,
			"byteLength":32,
			"byteOffset":502556
		},
		{
			"buffer":0,
			"byteLength":24,
			"byteOffset":502588
		},
		{
			"buffer":0,
			"byteLength":24,
			"byteOffset":502612
		},
		{
			"buffer":0,
			"byteLength":32,
			"byteOffset":502636
		},
		{
			"buffer":0,
			"byteLength":24,
			"byteOffset":502668
		},
		{
			"buffer":0,
			"byteLength":24,
			"byteOffset":502692
		},
		{
			"buffer":0,
			"byteLength":320,
			"byteOffset":502716
		},
		{
			"buffer":0,
			"byteLength":24,
			"byteOffset":503036
		},
		{
			"buffer":0,
			"byteLength":24,
			"byteOffset":503060
		},
		{
			"buffer":0,
			"byteLength":32,
			"byteOffset":503084
		},
		{
			"buffer":0,
			"byteLength":24,
			"byteOffset":503116
		},
		{
			"buffer":0,
			"byteLength":24,
			"byteOffset":503140
		},
		{
			"buffer":0,
			"byteLength":32,
			"byteOffset":503164
		},
		{
			"buffer":0,
			"byteLength":24,
			"byteOffset":503196
		},
		{
			"buffer":0,
			"byteLength":24,
			"byteOffset":503220
		},
		{
			"buffer":0,
			"byteLength":320,
			"byteOffset":503244
		},
		{
			"buffer":0,
			"byteLength":24,
			"byteOffset":503564
		},
		{
			"buffer":0,
			"byteLength":24,
			"byteOffset":503588
		},
		{
			"buffer":0,
			"byteLength":320,
			"byteOffset":503612
		},
		{
			"buffer":0,
			"byteLength":24,
			"byteOffset":503932
		},
		{
			"buffer":0,
			"byteLength":24,
			"byteOffset":503956
		},
		{
			"buffer":0,
			"byteLength":32,
			"byteOffset":503980
		},
		{
			"buffer":0,
			"byteLength":24,
			"byteOffset":504012
		},
		{
			"buffer":0,
			"byteLength":24,
			"byteOffset":504036
		},
		{
			"buffer":0,
			"byteLength":320,
			"byteOffset":504060
		},
		{
			"buffer":0,
			"byteLength":24,
			"byteOffset":504380
		},
		{
			"buffer":0,
			"byteLength":24,
			"byteOffset":504404
		},
		{
			"buffer":0,
			"byteLength":320,
			"byteOffset":504428
		},
		{
			"buffer":0,
			"byteLength":24,
			"byteOffset":504748
		},
		{
			"buffer":0,
			"byteLength":24,
			"byteOffset":504772
		},
		{
			"buffer":0,
			"byteLength":32,
			"byteOffset":504796
		},
		{
			"buffer":0,
			"byteLength":24,
			"byteOffset":504828
		},
		{
			"buffer":0,
			"byteLength":24,
			"byteOffset":504852
		},
		{
			"buffer":0,
			"byteLength":32,
			"byteOffset":504876
		},
		{
			"buffer":0,
			"byteLength":24,
			"byteOffset":504908
		},
		{
			"buffer":0,
			"byteLength":24,
			"byteOffset":504932
		},
		{
			"buffer":0,
			"byteLength":32,
			"byteOffset":504956
		},
		{
			"buffer":0,
			"byteLength":24,
			"byteOffset":504988
		},
		{
			"buffer":0,
			"byteLength":24,
			"byteOffset":505012
		},
		{
			"buffer":0,
			"byteLength":320,
			"byteOffset":505036
		},
		{
			"buffer":0,
			"byteLength":24,
			"byteOffset":505356
		},
		{
			"buffer":0,
			"byteLength":24,
			"byteOffset":505380
		},
		{
			"buffer":0,
			"byteLength":320,
			"byteOffset":505404
		},
		{
			"buffer":0,
			"byteLength":24,
			"byteOffset":505724
		},
		{
			"buffer":0,
			"byteLength":24,
			"byteOffset":505748
		},
		{
			"buffer":0,
			"byteLength":32,
			"byteOffset":505772
		},
		{
			"buffer":0,
			"byteLength":24,
			"byteOffset":505804
		},
		{
			"buffer":0,
			"byteLength":24,
			"byteOffset":505828
		},
		{
			"buffer":0,
			"byteLength":320,
			"byteOffset":505852
		},
		{
			"buffer":0,
			"byteLength":24,
			"byteOffset":506172
		},
		{
			"buffer":0,
			"byteLength":24,
			"byteOffset":506196
		},
		{
			"buffer":0,
			"byteLength":320,
			"byteOffset":506220
		},
		{
			"buffer":0,
			"byteLength":24,
			"byteOffset":506540
		},
		{
			"buffer":0,
			"byteLength":24,
			"byteOffset":506564
		},
		{
			"buffer":0,
			"byteLength":32,
			"byteOffset":506588
		},
		{
			"buffer":0,
			"byteLength":24,
			"byteOffset":506620
		},
		{
			"buffer":0,
			"byteLength":24,
			"byteOffset":506644
		},
		{
			"buffer":0,
			"byteLength":32,
			"byteOffset":506668
		},
		{
			"buffer":0,
			"byteLength":24,
			"byteOffset":506700
		},
		{
			"buffer":0,
			"byteLength":24,
			"byteOffset":506724
		},
		{
			"buffer":0,
			"byteLength":32,
			"byteOffset":506748
		},
		{
			"buffer":0,
			"byteLength":24,
			"byteOffset":506780
		},
		{
			"buffer":0,
			"byteLength":24,
			"byteOffset":506804
		},
		{
			"buffer":0,
			"byteLength":32,
			"byteOffset":506828
		},
		{
			"buffer":0,
			"byteLength":24,
			"byteOffset":506860
		},
		{
			"buffer":0,
			"byteLength":24,
			"byteOffset":506884
		},
		{
			"buffer":0,
			"byteLength":32,
			"byteOffset":506908
		},
		{
			"buffer":0,
			"byteLength":24,
			"byteOffset":506940
		},
		{
			"buffer":0,
			"byteLength":24,
			"byteOffset":506964
		},
		{
			"buffer":0,
			"byteLength":32,
			"byteOffset":506988
		},
		{
			"buffer":0,
			"byteLength":24,
			"byteOffset":507020
		},
		{
			"buffer":0,
			"byteLength":24,
			"byteOffset":507044
		},
		{
			"buffer":0,
			"byteLength":32,
			"byteOffset":507068
		},
		{
			"buffer":0,
			"byteLength":24,
			"byteOffset":507100
		},
		{
			"buffer":0,
			"byteLength":24,
			"byteOffset":507124
		},
		{
			"buffer":0,
			"byteLength":32,
			"byteOffset":507148
		},
		{
			"buffer":0,
			"byteLength":24,
			"byteOffset":507180
		},
		{
			"buffer":0,
			"byteLength":24,
			"byteOffset":507204
		},
		{
			"buffer":0,
			"byteLength":32,
			"byteOffset":507228
		},
		{
			"buffer":0,
			"byteLength":24,
			"byteOffset":507260
		},
		{
			"buffer":0,
			"byteLength":24,
			"byteOffset":507284
		},
		{
			"buffer":0,
			"byteLength":32,
			"byteOffset":507308
		},
		{
			"buffer":0,
			"byteLength":24,
			"byteOffset":507340
		},
		{
			"buffer":0,
			"byteLength":24,
			"byteOffset":507364
		},
		{
			"buffer":0,
			"byteLength":32,
			"byteOffset":507388
		},
		{
			"buffer":0,
			"byteLength":24,
			"byteOffset":507420
		},
		{
			"buffer":0,
			"byteLength":24,
			"byteOffset":507444
		},
		{
			"buffer":0,
			"byteLength":320,
			"byteOffset":507468
		},
		{
			"buffer":0,
			"byteLength":24,
			"byteOffset":507788
		},
		{
			"buffer":0,
			"byteLength":24,
			"byteOffset":507812
		},
		{
			"buffer":0,
			"byteLength":32,
			"byteOffset":507836
		},
		{
			"buffer":0,
			"byteLength":24,
			"byteOffset":507868
		},
		{
			"buffer":0,
			"byteLength":24,
			"byteOffset":507892
		},
		{
			"buffer":0,
			"byteLength":32,
			"byteOffset":507916
		},
		{
			"buffer":0,
			"byteLength":24,
			"byteOffset":507948
		},
		{
			"buffer":0,
			"byteLength":24,
			"byteOffset":507972
		},
		{
			"buffer":0,
			"byteLength":32,
			"byteOffset":507996
		},
		{
			"buffer":0,
			"byteLength":24,
			"byteOffset":508028
		},
		{
			"buffer":0,
			"byteLength":24,
			"byteOffset":508052
		},
		{
			"buffer":0,
			"byteLength":32,
			"byteOffset":508076
		},
		{
			"buffer":0,
			"byteLength":24,
			"byteOffset":508108
		},
		{
			"buffer":0,
			"byteLength":24,
			"byteOffset":508132
		},
		{
			"buffer":0,
			"byteLength":32,
			"byteOffset":508156
		},
		{
			"buffer":0,
			"byteLength":24,
			"byteOffset":508188
		},
		{
			"buffer":0,
			"byteLength":24,
			"byteOffset":508212
		},
		{
			"buffer":0,
			"byteLength":32,
			"byteOffset":508236
		},
		{
			"buffer":0,
			"byteLength":24,
			"byteOffset":508268
		},
		{
			"buffer":0,
			"byteLength":24,
			"byteOffset":508292
		},
		{
			"buffer":0,
			"byteLength":32,
			"byteOffset":508316
		},
		{
			"buffer":0,
			"byteLength":24,
			"byteOffset":508348
		},
		{
			"buffer":0,
			"byteLength":24,
			"byteOffset":508372
		},
		{
			"buffer":0,
			"byteLength":32,
			"byteOffset":508396
		},
		{
			"buffer":0,
			"byteLength":24,
			"byteOffset":508428
		},
		{
			"buffer":0,
			"byteLength":24,
			"byteOffset":508452
		},
		{
			"buffer":0,
			"byteLength":32,
			"byteOffset":508476
		},
		{
			"buffer":0,
			"byteLength":24,
			"byteOffset":508508
		},
		{
			"buffer":0,
			"byteLength":24,
			"byteOffset":508532
		},
		{
			"buffer":0,
			"byteLength":32,
			"byteOffset":508556
		},
		{
			"buffer":0,
			"byteLength":24,
			"byteOffset":508588
		},
		{
			"buffer":0,
			"byteLength":24,
			"byteOffset":508612
		},
		{
			"buffer":0,
			"byteLength":32,
			"byteOffset":508636
		},
		{
			"buffer":0,
			"byteLength":24,
			"byteOffset":508668
		}
	],
	"samplers":[
		{
			"magFilter":9729,
			"minFilter":9987
		}
	],
	"buffers":[
		{
			"byteLength":508692,
			"uri":"stormcaller.bin"
		}
	]
}
